<?xml version="1.0" encoding="UTF-8" standalone="no"?>
<!-- Generator: Adobe Illustrator 18.1.1, SVG Export Plug-In . SVG Version: 6.00 Build 0)  -->

<svg
   xmlns:dc="http://purl.org/dc/elements/1.1/"
   xmlns:cc="http://creativecommons.org/ns#"
   xmlns:rdf="http://www.w3.org/1999/02/22-rdf-syntax-ns#"
   xmlns:svg="http://www.w3.org/2000/svg"
   xmlns="http://www.w3.org/2000/svg"
   xmlns:sodipodi="http://sodipodi.sourceforge.net/DTD/sodipodi-0.dtd"
   xmlns:inkscape="http://www.inkscape.org/namespaces/inkscape"
   version="1.1"
   id="Layer_1"
   x="0px"
   y="0px"
   viewBox="0 0 278.00071 225.4"
   enable-background="new 0 0 595.3 595.3"
   xml:space="preserve"
   sodipodi:docname="logo.svg"
   width="278.0007"
   height="225.39999"
   inkscape:version="0.92.4 5da689c313, 2019-01-14"><metadata
   id="metadata99"><rdf:RDF><cc:Work
       rdf:about=""><dc:format>image/svg+xml</dc:format><dc:type
         rdf:resource="http://purl.org/dc/dcmitype/StillImage" /><dc:title></dc:title></cc:Work></rdf:RDF></metadata><defs
   id="defs97" /><sodipodi:namedview
   pagecolor="#ffffff"
   bordercolor="#666666"
   borderopacity="1"
   objecttolerance="10"
   gridtolerance="10"
   guidetolerance="10"
   inkscape:pageopacity="0"
   inkscape:pageshadow="2"
   inkscape:window-width="1366"
   inkscape:window-height="716"
   id="namedview95"
   showgrid="false"
   fit-margin-top="0"
   fit-margin-left="0"
   fit-margin-right="0"
   fit-margin-bottom="0"
   inkscape:zoom="0.39643878"
   inkscape:cx="138.75069"
   inkscape:cy="105.95002"
   inkscape:window-x="0"
   inkscape:window-y="0"
   inkscape:window-maximized="1"
   inkscape:current-layer="Layer_1" />
<path
   d="m 214.9007,0.1 c 0,0 -8.7,-0.1 -15.4,-0.1 l -15.4,0.1 c -27,2.3 -28.4,16.9 -28.4,36.4 v 19.3 c 0.1,5.3 2.7,7.9 7.9,8 5.4,0 8,-2.7 8,-8 V 36.6 c -0.1,-9.2 -2.3,-18.3 13.6,-20.4 0.7,-0.1 3.7,-0.1 6.8,-0.2 v 39.8 c 0,5.3 2.6,8 8,8 5.2,0 7.8,-2.7 7.9,-8 V 16 c 2.7,0 4.9,0.1 5.7,0.2 15.9,2.1 13.6,11.1 13.6,20.4 v 19.2 c 0,5.3 2.6,8 8,8 5.2,0 7.8,-2.7 7.9,-8 V 36.5 c 0.2,-19.4 -1.3,-34.1 -28.2,-36.4 z"
   id="path2"
   inkscape:connector-curvature="0" />
<path
   d="m 249.7007,76.1 c 0,0 -8.7,-0.1 -15.4,-0.1 l -15.4,0.1 c -27,2.3 -28.4,16.9 -28.4,36.4 v 19.3 c 0.1,5.3 2.7,7.9 7.9,8 5.4,0 8,-2.7 8,-8 v -19.2 c -0.1,-9.2 -2.3,-18.3 13.6,-20.4 0.7,-0.1 3.7,-0.1 6.8,-0.2 v 39.8 c 0,5.3 2.6,8 8,8 5.2,0 7.8,-2.7 7.9,-8 V 92 c 2.7,0 4.9,0.1 5.7,0.2 15.9,2.1 13.6,11.1 13.6,20.4 v 19.2 c 0,5.3 2.6,8 8,8 5.2,0 7.8,-2.7 7.9,-8 v -19.3 c 0.2,-19.5 -1.2,-34.1 -28.2,-36.4 z"
   id="path4"
   inkscape:connector-curvature="0" />
<path
   d="m 154.2007,76.9 h 0.1 c -9.4,-2.3 -16.5,-10.8 -16.5,-20.9 0,-2.8 0.5,-5.4 1.5,-7.8 2.8,-4.7 4.4,-10.3 4.4,-16.2 0,-17.6 -14.3,-31.9 -31.9,-31.9 h -16.7 V 4.9 C 86.100701,10.5 80.000701,20.5 80.000701,32 c 0,15.1 10.499999,27.8 24.599999,31 v 0 c 9.3,2.4 16.1,10.8 16.1,20.8 0,2.9 -0.6,5.6 -1.6,8.1 v 0 c -2.7,4.7 -4.3,10.1 -4.3,15.9 0,11.2 5.7,21 14.4,26.7 v 5.2 h 17.4 c 17.6,0 31.9,-14.3 31.9,-31.9 0.1,-15 -10.3,-27.6 -24.3,-30.9 z"
   id="path6"
   inkscape:connector-curvature="0"
   style="fill:#8dd4d9" />
<path
   d="m 31.700701,0.1 h 16 c 5.3,0.1 7.9,2.7 8,7.9 0,5.4 -2.7,8 -8,8 h -15.9 c -10.6,-0.1 -15.9,5.2 -15.9,15.9 0,10.6 5.3,15.9 15.9,15.9 h 15.9 c 5.3,0.1 8,2.7 8,7.9 0,5.3 -2.6,8 -7.9,8 h -15.9 C 10.600701,63.7 7.0094617e-4,53.1 7.0094617e-4,31.8 -0.09929915,10.7 10.500701,0.1 31.700701,0.1 Z"
   id="path8"
   inkscape:connector-curvature="0" />
<path
   d="m 65.400701,76 h 16 c 5.3,0.1 7.9,2.7 8,7.9 0,5.4 -2.7,8 -8,8 h -15.9 c -10.6,-0.1 -15.9,5.2 -15.9,15.9 0,10.6 5.3,15.9 15.9,15.9 h 15.9 c 5.3,0.1 8,2.7 8,7.9 0,5.3 -2.6,8 -7.9,8 h -15.9 c -21.3,0 -31.9,-10.6 -31.9,-31.9 -0.1,-21.1 10.5,-31.7 31.7,-31.7 z"
   id="path10"
   inkscape:connector-curvature="0" />
<path
   d="m 87.700701,63 c -14.1,-3.3 -24.6,-15.9 -24.6,-31 0,-17.6 14.3,-31.9 31.899999,-31.9 17.6,0 31.9,14.3 31.9,31.9 0,5.9 -1.6,11.5 -4.4,16.2 -1,2.4 -1.5,5.1 -1.5,7.8 0,10.1 7.1,18.6 16.5,20.9 h -0.1 c 14,3.4 24.4,16 24.4,31 0,17.6 -14.3,31.9 -31.9,31.9 -17.6,0 -31.9,-14.3 -31.9,-31.9 0,-5.8 1.6,-11.2 4.3,-15.9 v 0 c 1,-2.5 1.6,-5.3 1.6,-8.1 -0.2,-10.1 -7,-18.5 -16.199999,-20.9 z"
   id="path12"
   inkscape:connector-curvature="0"
   style="fill:#008c95" />
<g
   id="g60"
   transform="translate(-158.8993,-178.2)">
	<path
   d="m 203.5,346.2 c -1.7,0 -2.6,0.9 -2.6,2.8 v 5.9 c 0,1.9 0.9,2.8 2.7,2.8 2.2,0 2.4,-1.4 2.5,-2.3 0,-0.4 0.3,-0.6 0.8,-0.6 0.6,0 0.8,0.2 0.8,0.9 0,2 -1.6,3.5 -4.3,3.5 -2.3,0 -4.2,-1.2 -4.2,-4.3 V 349 c 0,-3.1 1.9,-4.3 4.2,-4.3 2.6,0 4.3,1.5 4.3,3.4 0,0.8 -0.3,0.9 -0.8,0.9 -0.5,0 -0.8,-0.2 -0.8,-0.6 -0.1,-0.7 -0.4,-2.2 -2.6,-2.2 z"
   id="path14"
   inkscape:connector-curvature="0" />
	<path
   d="m 209.7,355 v -6 c 0,-3.1 1.9,-4.3 4.2,-4.3 2.4,0 4.3,1.2 4.3,4.3 v 5.9 c 0,3.1 -1.9,4.3 -4.3,4.3 -2.3,0.1 -4.2,-1.1 -4.2,-4.2 z m 6.9,-6 c 0,-1.9 -1,-2.8 -2.6,-2.8 -1.6,0 -2.6,0.9 -2.6,2.8 v 5.9 c 0,1.9 1,2.8 2.6,2.8 1.6,0 2.6,-0.9 2.6,-2.8 z"
   id="path16"
   inkscape:connector-curvature="0" />
	<path
   d="m 226.7,353.8 c -0.2,0.3 -0.4,0.5 -0.7,0.5 -0.2,0 -0.4,-0.1 -0.6,-0.5 l -3,-5.7 v 10.4 c 0,0.4 -0.4,0.6 -0.8,0.6 -0.4,0 -0.8,-0.2 -0.8,-0.6 v -13 c 0,-0.6 0.4,-0.8 0.8,-0.8 0.6,0 1,0.4 1.3,1 l 3.1,5.9 3.1,-5.9 c 0.4,-0.7 0.7,-1 1.3,-1 0.4,0 0.8,0.2 0.8,0.8 v 13 c 0,0.4 -0.4,0.6 -0.8,0.6 -0.4,0 -0.8,-0.2 -0.8,-0.6 v -10.4 z"
   id="path18"
   inkscape:connector-curvature="0" />
	<path
   d="m 234.2,345.3 c 0,-0.4 0.4,-0.6 0.8,-0.6 0.4,0 0.8,0.2 0.8,0.6 v 13.3 c 0,0.4 -0.4,0.6 -0.8,0.6 -0.4,0 -0.8,-0.2 -0.8,-0.6 z"
   id="path20"
   inkscape:connector-curvature="0" />
	<path
   d="m 244.7,355.3 c 0,-4 -6.5,-2.2 -6.5,-7 0,-2.9 2.4,-3.7 4.3,-3.7 1.4,0 3.5,0.4 3.5,1.3 0,0.3 -0.3,0.9 -0.7,0.9 -0.5,0 -1,-0.8 -2.7,-0.8 -1.5,0 -2.7,0.5 -2.7,2.1 0,3.3 6.5,1.6 6.5,7 0,2.8 -1.8,4.1 -4.3,4.1 -2.5,0 -4.2,-1.4 -4.2,-2.2 0,-0.4 0.4,-0.9 0.7,-0.9 0.6,0 1,1.6 3.4,1.6 1.7,0.1 2.7,-0.7 2.7,-2.4 z"
   id="path22"
   inkscape:connector-curvature="0" />
	<path
   d="m 248.5,345.3 c 0,-0.4 0.4,-0.6 0.8,-0.6 0.4,0 0.8,0.2 0.8,0.6 v 13.3 c 0,0.4 -0.4,0.6 -0.8,0.6 -0.4,0 -0.8,-0.2 -0.8,-0.6 z"
   id="path24"
   inkscape:connector-curvature="0" />
	<path
   d="m 252.9,355 v -6 c 0,-3.1 1.9,-4.3 4.2,-4.3 2.4,0 4.3,1.2 4.3,4.3 v 5.9 c 0,3.1 -1.9,4.3 -4.3,4.3 -2.4,0.1 -4.2,-1.1 -4.2,-4.2 z m 6.8,-6 c 0,-1.9 -1,-2.8 -2.6,-2.8 -1.6,0 -2.6,0.9 -2.6,2.8 v 5.9 c 0,1.9 1,2.8 2.6,2.8 1.6,0 2.6,-0.9 2.6,-2.8 z m -3.1,-6.4 c -0.1,0 -0.1,0.1 -0.2,0.1 -0.3,0 -0.6,-0.4 -0.6,-0.7 0,-0.2 0.1,-0.3 0.3,-0.4 l 2.3,-1.2 c 0.1,0 0.1,0 0.2,0 0.3,0 0.6,0.4 0.6,0.7 0,0.2 -0.1,0.4 -0.3,0.5 z"
   id="path26"
   inkscape:connector-curvature="0" />
	<path
   d="m 270.8,358.4 -5.1,-9.9 v 10.1 c 0,0.4 -0.4,0.6 -0.8,0.6 -0.4,0 -0.8,-0.2 -0.8,-0.6 v -13.3 c 0,-0.4 0.4,-0.6 0.8,-0.6 0.6,0 0.9,0.4 1.3,1 l 4.9,9.6 v -10.1 c 0,-0.4 0.4,-0.6 0.8,-0.6 0.4,0 0.8,0.2 0.8,0.6 v 13.3 c 0,0.4 -0.4,0.6 -0.8,0.6 -0.5,0.1 -0.9,-0.3 -1.1,-0.7 z"
   id="path28"
   inkscape:connector-curvature="0" />
	<path
   d="m 283.7,344.7 c 2.4,0 4.3,1.2 4.3,4.3 v 5.8 c 0,3.1 -1.9,4.3 -4.3,4.3 h -3.5 c -0.5,0 -0.8,-0.3 -0.8,-0.6 v -13.3 c 0,-0.3 0.3,-0.6 0.8,-0.6 h 3.5 z m -2.6,1.5 v 11.4 h 2.6 c 1.6,0 2.6,-0.9 2.6,-2.8 V 349 c 0,-1.9 -1,-2.8 -2.6,-2.8 z"
   id="path30"
   inkscape:connector-curvature="0" />
	<path
   d="m 292.2,351.2 h 3.1 c 0.4,0 0.6,0.3 0.6,0.7 0,0.3 -0.2,0.7 -0.6,0.7 h -3.1 v 5 h 6.1 c 0.4,0 0.6,0.4 0.6,0.8 0,0.4 -0.2,0.7 -0.6,0.7 h -7 c -0.4,0 -0.7,-0.2 -0.7,-0.6 v -13.2 c 0,-0.4 0.4,-0.6 0.7,-0.6 h 7 c 0.4,0 0.6,0.4 0.6,0.7 0,0.4 -0.2,0.8 -0.6,0.8 h -6.1 z"
   id="path32"
   inkscape:connector-curvature="0" />
	<path
   d="m 306.3,351.2 h 3.1 c 0.4,0 0.6,0.3 0.6,0.7 0,0.3 -0.2,0.7 -0.6,0.7 h -3.1 v 5 h 6.1 c 0.4,0 0.6,0.4 0.6,0.8 0,0.4 -0.2,0.7 -0.6,0.7 h -7 c -0.4,0 -0.7,-0.2 -0.7,-0.6 v -13.2 c 0,-0.4 0.4,-0.6 0.7,-0.6 h 7 c 0.4,0 0.6,0.4 0.6,0.7 0,0.4 -0.2,0.8 -0.6,0.8 h -6.1 z"
   id="path34"
   inkscape:connector-curvature="0" />
	<path
   d="m 320.9,355.3 c 0,-4 -6.5,-2.2 -6.5,-7 0,-2.9 2.4,-3.7 4.3,-3.7 1.4,0 3.5,0.4 3.5,1.3 0,0.3 -0.3,0.9 -0.7,0.9 -0.5,0 -1,-0.8 -2.7,-0.8 -1.5,0 -2.7,0.5 -2.7,2.1 0,3.3 6.5,1.6 6.5,7 0,2.8 -1.8,4.1 -4.3,4.1 -2.5,0 -4.2,-1.4 -4.2,-2.2 0,-0.4 0.4,-0.9 0.7,-0.9 0.6,0 1,1.6 3.4,1.6 1.6,0.1 2.7,-0.7 2.7,-2.4 z"
   id="path36"
   inkscape:connector-curvature="0" />
	<path
   d="m 332.2,344.7 c 0.4,0 0.6,0.4 0.6,0.7 0,0.4 -0.2,0.8 -0.6,0.8 H 329 v 12.3 c 0,0.4 -0.4,0.6 -0.8,0.6 -0.4,0 -0.8,-0.2 -0.8,-0.6 v -12.3 h -3.2 c -0.4,0 -0.6,-0.4 -0.6,-0.8 0,-0.4 0.2,-0.7 0.6,-0.7 z"
   id="path38"
   inkscape:connector-curvature="0" />
	<path
   d="m 341.4,345.3 c 0,-0.4 0.4,-0.6 0.8,-0.6 0.4,0 0.8,0.2 0.8,0.6 v 9.7 c 0,3.1 -1.9,4.3 -4.3,4.3 -2.4,0 -4.3,-1.2 -4.3,-4.3 v -9.7 c 0,-0.4 0.4,-0.6 0.8,-0.6 0.4,0 0.8,0.2 0.8,0.6 v 9.7 c 0,1.9 1,2.8 2.6,2.8 1.7,0 2.7,-0.9 2.7,-2.8 v -9.7 z"
   id="path40"
   inkscape:connector-curvature="0" />
	<path
   d="m 350,344.7 c 2.4,0 4.3,1.2 4.3,4.3 v 5.8 c 0,3.1 -1.9,4.3 -4.3,4.3 h -3.5 c -0.5,0 -0.8,-0.3 -0.8,-0.6 v -13.3 c 0,-0.3 0.3,-0.6 0.8,-0.6 h 3.5 z m -2.6,1.5 v 11.4 h 2.6 c 1.6,0 2.6,-0.9 2.6,-2.8 V 349 c 0,-1.9 -1,-2.8 -2.6,-2.8 z"
   id="path42"
   inkscape:connector-curvature="0" />
	<path
   d="m 356.9,345.3 c 0,-0.4 0.4,-0.6 0.8,-0.6 0.4,0 0.8,0.2 0.8,0.6 v 13.3 c 0,0.4 -0.4,0.6 -0.8,0.6 -0.4,0 -0.8,-0.2 -0.8,-0.6 z"
   id="path44"
   inkscape:connector-curvature="0" />
	<path
   d="m 360.3,358.5 c 0,-0.1 0,-0.1 0,-0.2 l 4,-13.1 c 0.1,-0.4 0.6,-0.6 1,-0.6 0.5,0 0.9,0.2 1,0.6 l 4,13.1 c 0,0.1 0,0.1 0,0.1 0,0.4 -0.6,0.7 -1,0.7 -0.3,0 -0.5,-0.1 -0.6,-0.4 l -0.9,-2.9 h -5.2 l -0.9,2.9 c -0.1,0.3 -0.3,0.4 -0.6,0.4 -0.2,0.1 -0.8,-0.2 -0.8,-0.6 z m 7.3,-4 -2.2,-7.4 -2.2,7.4 z"
   id="path46"
   inkscape:connector-curvature="0" />
	<path
   d="m 379,358.4 -5.1,-9.9 v 10.1 c 0,0.4 -0.4,0.6 -0.8,0.6 -0.4,0 -0.8,-0.2 -0.8,-0.6 v -13.3 c 0,-0.4 0.4,-0.6 0.8,-0.6 0.6,0 0.9,0.4 1.3,1 l 4.9,9.6 v -10.1 c 0,-0.4 0.4,-0.6 0.8,-0.6 0.4,0 0.8,0.2 0.8,0.6 v 13.3 c 0,0.4 -0.4,0.6 -0.8,0.6 -0.5,0.1 -0.9,-0.3 -1.1,-0.7 z"
   id="path48"
   inkscape:connector-curvature="0" />
	<path
   d="m 391.2,344.7 c 0.4,0 0.6,0.4 0.6,0.7 0,0.4 -0.2,0.8 -0.6,0.8 H 388 v 12.3 c 0,0.4 -0.4,0.6 -0.8,0.6 -0.4,0 -0.8,-0.2 -0.8,-0.6 v -12.3 h -3.2 c -0.4,0 -0.6,-0.4 -0.6,-0.8 0,-0.4 0.2,-0.7 0.6,-0.7 z"
   id="path50"
   inkscape:connector-curvature="0" />
	<path
   d="m 395.1,351.2 h 3.1 c 0.4,0 0.6,0.3 0.6,0.7 0,0.3 -0.2,0.7 -0.6,0.7 h -3.1 v 5 h 6.1 c 0.4,0 0.6,0.4 0.6,0.8 0,0.4 -0.2,0.7 -0.6,0.7 h -7 c -0.4,0 -0.7,-0.2 -0.7,-0.6 v -13.2 c 0,-0.4 0.4,-0.6 0.7,-0.6 h 7 c 0.4,0 0.6,0.4 0.6,0.7 0,0.4 -0.2,0.8 -0.6,0.8 h -6.1 z"
   id="path52"
   inkscape:connector-curvature="0" />
	<path
   d="m 409.7,355.3 c 0,-4 -6.5,-2.2 -6.5,-7 0,-2.9 2.4,-3.7 4.3,-3.7 1.4,0 3.5,0.4 3.5,1.3 0,0.3 -0.3,0.9 -0.7,0.9 -0.4,0 -1,-0.8 -2.7,-0.8 -1.5,0 -2.7,0.5 -2.7,2.1 0,3.3 6.5,1.6 6.5,7 0,2.8 -1.8,4.1 -4.3,4.1 -2.5,0 -4.2,-1.4 -4.2,-2.2 0,-0.4 0.4,-0.9 0.7,-0.9 0.6,0 1,1.6 3.4,1.6 1.6,0.1 2.7,-0.7 2.7,-2.4 z"
   id="path54"
   inkscape:connector-curvature="0" />
	<path
   d="m 421.6,344.7 c 2.4,0 4.3,1.2 4.3,4.3 v 5.8 c 0,3.1 -1.9,4.3 -4.3,4.3 h -3.5 c -0.5,0 -0.8,-0.3 -0.8,-0.6 v -13.3 c 0,-0.3 0.3,-0.6 0.8,-0.6 h 3.5 z m -2.5,1.5 v 11.4 h 2.6 c 1.6,0 2.6,-0.9 2.6,-2.8 V 349 c 0,-1.9 -1,-2.8 -2.6,-2.8 z"
   id="path56"
   inkscape:connector-curvature="0" />
	<path
   d="m 430.2,351.2 h 3.1 c 0.4,0 0.6,0.3 0.6,0.7 0,0.3 -0.2,0.7 -0.6,0.7 h -3.1 v 5 h 6.1 c 0.4,0 0.6,0.4 0.6,0.8 0,0.4 -0.2,0.7 -0.6,0.7 h -7 c -0.4,0 -0.8,-0.2 -0.8,-0.6 v -13.2 c 0,-0.4 0.4,-0.6 0.8,-0.6 h 7 c 0.4,0 0.6,0.4 0.6,0.7 0,0.4 -0.2,0.8 -0.6,0.8 h -6.1 z"
   id="path58"
   inkscape:connector-curvature="0" />
</g>
<g
   id="g84"
   transform="translate(-158.8993,-178.2)">
	<path
   d="m 208.9,376.1 c -3.6,0 -5.5,1.9 -5.5,5.9 v 12.5 c 0,4 2,5.9 5.7,5.9 4.6,0 5,-3 5.3,-5 0.1,-0.8 0.7,-1.2 1.7,-1.2 1.2,0 1.7,0.4 1.7,2 0,4.1 -3.5,7.4 -9,7.4 -4.9,0 -8.9,-2.5 -8.9,-9.1 V 382 c 0,-6.6 4.1,-9.1 9,-9.1 5.6,0 9,3.2 9,7.2 0,1.6 -0.6,1.9 -1.7,1.9 -1.1,0 -1.7,-0.5 -1.7,-1.2 -0.2,-1.6 -0.9,-4.7 -5.6,-4.7 z"
   id="path62"
   inkscape:connector-curvature="0" />
	<path
   d="M 222,394.5 V 382 c 0,-6.6 3.9,-9.1 9,-9.1 5,0 9,2.5 9,9.1 v 12.5 c 0,6.6 -4,9.1 -9,9.1 -5.1,0 -9,-2.5 -9,-9.1 z M 236.5,382 c 0,-4 -2.1,-5.9 -5.5,-5.9 -3.4,0 -5.5,1.9 -5.5,5.9 v 12.5 c 0,4 2,5.9 5.5,5.9 3.4,0 5.5,-1.9 5.5,-5.9 z"
   id="path64"
   inkscape:connector-curvature="0" />
	<path
   d="m 258,392.1 c -0.4,0.7 -0.9,1 -1.4,1 -0.4,0 -0.9,-0.2 -1.3,-1 l -6.2,-12 v 22 c 0,0.8 -0.9,1.2 -1.7,1.2 -0.9,0 -1.8,-0.4 -1.8,-1.2 v -27.5 c 0,-1.3 0.8,-1.7 1.8,-1.7 1.2,0 2,0.8 2.8,2.2 l 6.5,12.5 6.6,-12.5 c 0.8,-1.5 1.5,-2.2 2.8,-2.2 0.9,0 1.7,0.5 1.7,1.7 v 27.5 c 0,0.8 -0.9,1.2 -1.7,1.2 -0.9,0 -1.8,-0.4 -1.8,-1.2 v -21.9 z"
   id="path66"
   inkscape:connector-curvature="0" />
	<path
   d="m 273.7,374.1 c 0,-0.6 0.5,-1.2 1.4,-1.2 h 7.9 c 4.9,0 8.8,2.4 8.8,9 v 0.4 c 0,6.5 -4,9 -9,9 h -5.6 v 10.8 c 0,0.8 -0.9,1.2 -1.7,1.2 -0.8,0 -1.7,-0.4 -1.7,-1.2 v -28 z m 3.5,2 v 12.3 h 5.6 c 3.4,0 5.5,-1.9 5.5,-5.9 V 382 c 0,-4 -2.1,-5.9 -5.5,-5.9 z"
   id="path68"
   inkscape:connector-curvature="0" />
	<path
   d="m 310.5,374.1 c 0,-0.8 0.8,-1.2 1.7,-1.2 0.8,0 1.7,0.4 1.7,1.2 v 20.4 c 0,6.6 -4,9.1 -9.1,9.1 -5.1,0 -9.1,-2.5 -9.1,-9.1 v -20.4 c 0,-0.8 0.9,-1.2 1.7,-1.2 0.9,0 1.7,0.4 1.7,1.2 v 20.4 c 0,4 2.1,5.9 5.6,5.9 3.5,0 5.6,-1.9 5.6,-5.9 v -20.4 z"
   id="path70"
   inkscape:connector-curvature="0" />
	<path
   d="m 335.6,372.9 c 0.8,0 1.2,0.8 1.2,1.6 0,0.8 -0.4,1.7 -1.2,1.7 h -6.7 v 25.9 c 0,0.8 -0.9,1.2 -1.7,1.2 -0.8,0 -1.7,-0.4 -1.7,-1.2 v -25.9 h -6.7 c -0.8,0 -1.3,-0.8 -1.3,-1.7 0,-0.8 0.4,-1.6 1.3,-1.6 z"
   id="path72"
   inkscape:connector-curvature="0" />
	<path
   d="m 335.8,401.9 c 0,-0.1 0,-0.2 0.1,-0.3 l 8.5,-27.7 c 0.2,-0.8 1.2,-1.2 2.2,-1.2 1,0 1.9,0.4 2.2,1.2 l 8.5,27.7 c 0,0.1 0,0.2 0,0.3 0,0.8 -1.2,1.5 -2.2,1.5 -0.6,0 -1.1,-0.2 -1.2,-0.8 l -1.8,-6.2 h -11 l -1.8,6.2 c -0.2,0.5 -0.7,0.8 -1.3,0.8 -1,-0.1 -2.2,-0.6 -2.2,-1.5 z m 15.3,-8.4 -4.6,-15.7 -4.7,15.7 z"
   id="path74"
   inkscape:connector-curvature="0" />
	<path
   d="m 369.7,376.1 c -3.6,0 -5.5,1.9 -5.5,5.9 v 12.5 c 0,4 2,5.9 5.7,5.9 4.6,0 5,-3 5.3,-5 0.1,-0.8 0.7,-1.2 1.7,-1.2 1.2,0 1.7,0.4 1.7,2 0,4.1 -3.5,7.4 -9,7.4 -4.9,0 -8.9,-2.5 -8.9,-9.1 V 382 c 0,-6.6 4.1,-9.1 9,-9.1 5.6,0 9,3.2 9,7.2 0,1.6 -0.6,1.9 -1.7,1.9 -1.1,0 -1.7,-0.5 -1.7,-1.2 -0.3,-1.6 -1,-4.7 -5.6,-4.7 z"
   id="path76"
   inkscape:connector-curvature="0" />
	<path
   d="m 383,374.1 c 0,-0.8 0.9,-1.2 1.7,-1.2 0.9,0 1.7,0.4 1.7,1.2 v 28 c 0,0.8 -0.9,1.2 -1.7,1.2 -0.9,0 -1.7,-0.4 -1.7,-1.2 z"
   id="path78"
   inkscape:connector-curvature="0" />
	<path
   d="M 392.1,394.5 V 382 c 0,-6.6 3.9,-9.1 9,-9.1 5,0 9,2.5 9,9.1 v 12.5 c 0,6.6 -4,9.1 -9,9.1 -5,0 -9,-2.5 -9,-9.1 z M 406.6,382 c 0,-4 -2.1,-5.9 -5.5,-5.9 -3.4,0 -5.5,1.9 -5.5,5.9 v 12.5 c 0,4 2,5.9 5.5,5.9 3.4,0 5.5,-1.9 5.5,-5.9 z m -6.5,-13.6 c -0.2,0.1 -0.3,0.2 -0.5,0.2 -0.7,0 -1.3,-0.7 -1.3,-1.4 0,-0.4 0.2,-0.7 0.5,-0.9 l 4.9,-2.6 c 0.1,0 0.3,-0.1 0.4,-0.1 0.7,0 1.2,0.8 1.2,1.4 0,0.4 -0.2,0.8 -0.6,1 z"
   id="path80"
   inkscape:connector-curvature="0" />
	<path
   d="m 430,401.8 -10.8,-20.9 v 21.3 c 0,0.8 -0.9,1.2 -1.7,1.2 -0.8,0 -1.7,-0.4 -1.7,-1.2 v -28 c 0,-0.9 0.8,-1.2 1.7,-1.2 1.2,0 1.9,0.8 2.7,2.2 l 10.4,20.3 v -21.3 c 0,-0.8 0.9,-1.2 1.7,-1.2 0.9,0 1.7,0.4 1.7,1.2 v 28 c 0,0.8 -0.9,1.2 -1.7,1.2 -1,-0.1 -1.8,-0.7 -2.3,-1.6 z"
   id="path82"
   inkscape:connector-curvature="0" />
</g>
<g
   id="g88"
   transform="translate(-158.8993,-178.2)">
	<rect
   x="199.3"
   y="364.89999"
   width="191.89999"
   height="1.1"
   id="rect86" />
</g>
<g
   id="g92"
   transform="translate(-158.8993,-178.2)">
	<rect
   x="413.39999"
   y="364.89999"
   width="22.200001"
   height="1.1"
   id="rect90" />
</g>
</svg>