<svg xmlns="http://www.w3.org/2000/svg" width="160" height="96" viewBox="0 0 160 96.000001"><g fill="#362701"><path d="M108.97 51.74c-2.326 0-4.06 1.144-4.06 3.894 0 2.073 1.143 3.512 3.936 3.512 2.368 0 3.976-1.395 3.976-3.597 0-2.497-1.44-3.81-3.85-3.81zm-4.652 19.423c-.55.676-1.1 1.395-1.1 2.242 0 1.69 2.156 2.2 5.12 2.2 2.453 0 5.796-.172 5.796-2.453 0-1.356-1.608-1.44-3.64-1.568l-6.176-.42zm12.523-19.295c.762.974 1.567 2.328 1.567 4.274 0 4.696-3.682 7.446-9.01 7.446-1.357 0-2.584-.17-3.344-.38l-1.397 2.242 4.146.254c7.32.466 11.634.678 11.634 6.303 0 4.867-4.272 7.616-11.634 7.616-7.658 0-10.577-1.947-10.577-5.29 0-1.903.846-2.917 2.327-4.315-1.397-.59-1.862-1.647-1.862-2.79 0-.932.465-1.778 1.228-2.582.76-.803 1.607-1.608 2.623-2.54-2.072-1.014-3.638-3.214-3.638-6.346 0-4.865 3.216-8.206 9.688-8.206 1.82 0 2.92.167 3.893.423h8.25v3.595l-3.892.296M128.178 44.18c-2.413 0-3.808-1.397-3.808-3.81 0-2.41 1.395-3.722 3.808-3.722 2.454 0 3.85 1.313 3.85 3.722 0 2.413-1.396 3.81-3.85 3.81zm-5.46 25.426v-3.34l2.16-.296c.592-.085.676-.21.676-.848v-12.44c0-.463-.126-.76-.55-.886l-2.285-.805.464-3.425h8.76v17.557c0 .68.04.763.676.848l2.158.296v3.34h-12.06M151.51 67.966c-1.82.888-4.486 1.692-6.9 1.692-5.033 0-6.936-2.03-6.936-6.812V51.76c0-.252 0-.422-.34-.422h-2.96v-3.765c3.723-.425 5.203-2.287 5.668-6.898h4.02v6.01c0 .295 0 .423.34.423h5.964v4.23h-6.304v10.11c0 2.498.593 3.47 2.877 3.47 1.185 0 2.41-.295 3.426-.676l1.143 3.724"/></g><path d="M81.886 44.668l-32.663-32.66a4.817 4.817 0 0 0-6.812 0l-6.78 6.783 8.602 8.604a5.72 5.72 0 0 1 7.245 7.294l8.292 8.292a5.722 5.722 0 0 1 5.922 1.36 5.73 5.73 0 0 1 0 8.106 5.732 5.732 0 0 1-9.356-6.234l-7.733-7.733v20.348c.545.27 1.06.63 1.516 1.084a5.733 5.733 0 1 1-6.23-1.25V38.12a5.73 5.73 0 0 1-3.112-7.517l-8.48-8.482L9.9 44.517a4.82 4.82 0 0 0 0 6.815l32.662 32.66a4.818 4.818 0 0 0 6.813 0l32.51-32.51a4.82 4.82 0 0 0 0-6.814" fill="#f03c2e"/><g font-weight="400" font-family="Chivo" letter-spacing="0" word-spacing="0" text-anchor="end" fill="#f03c2e"><path style="line-height:125%;-inkscape-font-specification:Chivo;text-align:end" d="M104.637 37.998V34.27h1.28v9.796h-.954q-.068-.26-.177-.953-.775 1.09-2.15 1.09-1.238 0-1.986-.872-.83-.95-.83-2.747v-.15q0-1.646.79-2.585.734-.87 2.027-.87 1.292 0 2 1.02zm-3.538 2.598q0 2.04 1.047 2.463.326.12.72.12 1.783 0 1.783-2.584 0-2.055-1.06-2.463-.328-.136-.722-.136-.844 0-1.28.558-.49.64-.49 2.04zM109.03 40.882q.042 1.606 1.076 2.122.354.177.898.177.53 0 .87-.203.34-.204.518-.476.285-.434.285-1.02h1.21q0 1.24-.815 1.987-.816.735-2.095.735h-.055q-1.428 0-2.286-.898-.884-.953-.884-2.572v-.272q0-1.62.884-2.57.83-.913 2.245-.913h.097q1.292 0 2.095.79.816.788.816 2.15v.965h-4.857zm1.88-2.884q-.763 0-1.253.476-.49.462-.6 1.415h3.566v-.165q0-.816-.503-1.292-.463-.435-1.21-.435zM104.106 28.556q.538 0 1.284-.31v1.45q-.746.372-1.926.372-1.2 0-1.843-.704-.64-.704-.64-2.32v-6.21h-1.16V19.28h1.222l.662-3.375h1.222v3.375h2.464v1.553h-2.464v6.315q0 1.18.745 1.346.208.062.436.062zM114.163 25.015q-2.65 0-3.54.29-.89.27-1.243.663-.352.373-.352 1.118 0 1.43 2.174 1.43 1.16 0 2.05-.81.91-.848.91-2.276v-.415zm.082 3.148q-1.263 1.905-3.706 1.905-2.403 0-3.17-1.49-.29-.602-.29-1.658t.52-1.74q.517-.703 1.448-1.076 1.49-.6 5.115-.6v-.973q0-.807-.29-1.16-.642-.744-2.133-.744-1.45 0-2.03.704-.33.414-.33.952v.25h-1.905q-.042-.208-.042-.684 0-.456.332-1.015.33-.56.91-.952 1.243-.807 3.107-.807h.186q2.112 0 3.126.85 1.015.827 1.015 2.38v5.487q0 .393.165.56.186.165.414.165.496 0 .95-.29v1.428q-.682.415-1.593.415-.932 0-1.346-.54-.413-.537-.455-1.365zM120.02 29.86V14.953h1.947V29.86h-1.946zM125.56 29.86V14.953h1.948V29.86h-1.947zM132.302 25.015q.063 2.444 1.636 3.23.538.27 1.367.27.807 0 1.325-.31.517-.312.787-.726.434-.663.434-1.554h1.844q0 1.885-1.242 3.023-1.242 1.118-3.19 1.118h-.082q-2.174 0-3.478-1.367-1.346-1.448-1.346-3.912v-.414q0-2.464 1.346-3.914 1.263-1.387 3.416-1.387h.145q1.967 0 3.19 1.2 1.24 1.202 1.24 3.272v1.47h-7.39zm2.858-4.39q-1.16 0-1.905.726-.746.705-.91 2.154h5.424v-.248q0-1.243-.768-1.967-.704-.664-1.842-.664zM150.433 22.386l-.062.787h-1.718v-.456q0-.725-.373-1.18-.684-.91-1.678-.91-1.097 0-1.656.95-.456.788-.456 1.968v6.315h-1.946V19.28h1.387l.29 1.574q.312-.932 1.7-1.512.6-.27 1.386-.27.787 0 1.346.27.58.25.973.704.808.91.808 2.34z"/></g></svg>