<?xml version="1.0" encoding="UTF-8" standalone="no"?>
<!-- Generator: Adobe Illustrator 18.1.1, SVG Export Plug-In . SVG Version: 6.00 Build 0)  -->

<svg
   xmlns:dc="http://purl.org/dc/elements/1.1/"
   xmlns:cc="http://creativecommons.org/ns#"
   xmlns:rdf="http://www.w3.org/1999/02/22-rdf-syntax-ns#"
   xmlns:svg="http://www.w3.org/2000/svg"
   xmlns="http://www.w3.org/2000/svg"
   xmlns:sodipodi="http://sodipodi.sourceforge.net/DTD/sodipodi-0.dtd"
   xmlns:inkscape="http://www.inkscape.org/namespaces/inkscape"
   version="1.1"
   id="Layer_1"
   x="0px"
   y="0px"
   viewBox="0 0 751.30072 139.8"
   enable-background="new 0 0 960 560"
   xml:space="preserve"
   sodipodi:docname="logo-horizontal.svg"
   width="751.30072"
   height="139.8"
   inkscape:version="0.92.4 5da689c313, 2019-01-14"><metadata
   id="metadata103"><rdf:RDF><cc:Work
       rdf:about=""><dc:format>image/svg+xml</dc:format><dc:type
         rdf:resource="http://purl.org/dc/dcmitype/StillImage" /><dc:title></dc:title></cc:Work></rdf:RDF></metadata><defs
   id="defs101" /><sodipodi:namedview
   pagecolor="#ffffff"
   bordercolor="#666666"
   borderopacity="1"
   objecttolerance="10"
   gridtolerance="10"
   guidetolerance="10"
   inkscape:pageopacity="0"
   inkscape:pageshadow="2"
   inkscape:window-width="810"
   inkscape:window-height="480"
   id="namedview99"
   showgrid="false"
   fit-margin-top="0"
   fit-margin-left="0"
   fit-margin-right="0"
   fit-margin-bottom="0"
   inkscape:zoom="0.325"
   inkscape:cx="375.6007"
   inkscape:cy="70.4"
   inkscape:window-x="0"
   inkscape:window-y="0"
   inkscape:window-maximized="0"
   inkscape:current-layer="Layer_1" />
<path
   d="m 214.9007,0.1 c 0,0 -8.7,-0.1 -15.4,-0.1 l -15.4,0.1 c -27,2.3 -28.4,16.9 -28.4,36.4 v 19.3 c 0.1,5.3 2.7,7.9 7.9,8 5.4,0 8,-2.7 8,-8 V 36.6 c -0.1,-9.2 -2.3,-18.3 13.6,-20.4 0.7,-0.1 3.7,-0.1 6.8,-0.2 v 39.8 c 0,5.3 2.6,8 8,8 5.2,0 7.8,-2.7 7.9,-8 V 16 c 2.7,0 4.9,0.1 5.7,0.2 15.9,2.1 13.6,11.1 13.6,20.4 v 19.2 c 0,5.3 2.6,8 8,8 5.2,0 7.8,-2.7 7.9,-8 V 36.5 c 0.2,-19.4 -1.2,-34.1 -28.2,-36.4 z"
   id="path2"
   inkscape:connector-curvature="0"
   style="fill:#231f20" />
<path
   d="m 249.7007,76.1 c 0,0 -8.7,-0.1 -15.4,-0.1 l -15.4,0.1 c -27,2.3 -28.4,16.9 -28.4,36.4 v 19.3 c 0.1,5.3 2.7,7.9 7.9,8 5.4,0 8,-2.7 8,-8 v -19.2 c -0.1,-9.2 -2.3,-18.3 13.6,-20.4 0.7,-0.1 3.7,-0.1 6.8,-0.2 v 39.8 c 0,5.3 2.6,8 8,8 5.2,0 7.8,-2.7 7.9,-8 V 92 c 2.7,0 4.9,0.1 5.7,0.2 15.9,2.1 13.6,11.1 13.6,20.4 v 19.2 c 0,5.3 2.6,8 8,8 5.2,0 7.8,-2.7 7.9,-8 v -19.3 c 0.3,-19.5 -1.2,-34.1 -28.2,-36.4 z"
   id="path4"
   inkscape:connector-curvature="0"
   style="fill:#231f20" />
<path
   d="M 104.7007,63 C 90.600701,59.7 80.100701,47.1 80.100701,32 c 0,-17.6 14.3,-31.9 31.899999,-31.9 17.6,0 31.9,14.3 31.9,31.9 0,5.9 -1.6,11.5 -4.4,16.2 -1,2.4 -1.5,5.1 -1.5,7.8 0,10.1 7.1,18.6 16.5,20.9 h -0.1 c 14,3.4 24.4,16 24.4,31 0,17.6 -14.3,31.9 -31.9,31.9 -17.6,0 -31.9,-14.3 -31.9,-31.9 0,-5.8 1.5,-11.2 4.3,-15.9 v 0 c 1,-2.5 1.6,-5.3 1.6,-8.1 -0.1,-10.1 -7,-18.5 -16.2,-20.9 z"
   id="path6"
   inkscape:connector-curvature="0"
   style="fill:#8cd3d8" />
<rect
   x="95.1007"
   y="0.099996947"
   width="16.799999"
   height="17.5"
   id="rect8"
   style="fill:#8cd3d8" />
<rect
   x="129.3007"
   y="125.50001"
   width="17.4"
   height="14.2"
   id="rect10"
   style="fill:#8cd3d8" />
<path
   d="m 31.700701,0.1 h 16 c 5.3,0.1 7.9,2.7 8,7.9 0,5.4 -2.7,8 -8,8 h -15.9 c -10.6,-0.1 -15.9,5.2 -15.9,15.9 0,10.6 5.3,15.9 15.9,15.9 h 15.9 c 5.3,0.1 8,2.7 8,7.9 0,5.3 -2.6,8 -7.9,8 h -15.9 C 10.600701,63.7 7.0094478e-4,53.1 7.0094478e-4,31.8 -0.09929906,10.7 10.500701,0.1 31.700701,0.1 Z"
   id="path12"
   inkscape:connector-curvature="0"
   style="fill:#231f20" />
<path
   d="m 65.500701,76 h 16 c 5.3,0.1 7.9,2.7 8,7.9 0,5.4 -2.7,8 -8,8 h -15.9 c -10.6,-0.1 -15.9,5.2 -15.9,15.9 0,10.6 5.3,15.9 15.9,15.9 h 15.9 c 5.3,0.1 8,2.7 8,7.9 0,5.3 -2.6,8 -7.9,8 h -15.9 c -21.3,0 -31.9,-10.6 -31.9,-31.9 -0.2,-21.1 10.4,-31.7 31.7,-31.7 z"
   id="path14"
   inkscape:connector-curvature="0"
   style="fill:#231f20" />
<path
   d="m 87.700701,63 c -14.1,-3.3 -24.6,-15.9 -24.6,-31 0,-17.6 14.3,-31.9 31.9,-31.9 17.599999,0 31.899999,14.3 31.899999,31.9 0,5.9 -1.6,11.5 -4.4,16.2 -1,2.4 -1.5,5.1 -1.5,7.8 0,10.1 7.1,18.6 16.5,20.9 h -0.1 c 14,3.4 24.4,16 24.4,31 0,17.6 -14.3,31.9 -31.9,31.9 -17.6,0 -31.899999,-14.3 -31.899999,-31.9 0,-5.8 1.5,-11.2 4.299999,-15.9 v 0 c 1,-2.5 1.6,-5.3 1.6,-8.1 -0.1,-10.1 -6.999999,-18.5 -16.199999,-20.9 z"
   id="path16"
   inkscape:connector-curvature="0"
   style="fill:#008b94" />
<g
   id="g64"
   transform="translate(-104.3993,-210.6)">
	<path
   d="m 429.7,239.1 c -3.1,0 -4.8,1.6 -4.8,5.1 V 255 c 0,3.5 1.7,5.1 4.9,5.1 4,0 4.4,-2.6 4.6,-4.3 0.1,-0.7 0.6,-1 1.5,-1 1,0 1.5,0.3 1.5,1.7 0,3.6 -3,6.4 -7.8,6.4 -4.2,0 -7.7,-2.1 -7.7,-7.8 v -10.8 c 0,-5.7 3.5,-7.8 7.7,-7.8 4.8,0 7.8,2.7 7.8,6.3 0,1.4 -0.5,1.7 -1.5,1.7 -1,0 -1.5,-0.4 -1.5,-1 -0.1,-1.7 -0.7,-4.4 -4.7,-4.4 z"
   id="path18"
   inkscape:connector-curvature="0"
   style="fill:#231f20" />
	<path
   d="m 441,255 v -10.8 c 0,-5.7 3.4,-7.8 7.7,-7.8 4.4,0 7.8,2.1 7.8,7.8 V 255 c 0,5.7 -3.4,7.8 -7.8,7.8 -4.3,0.1 -7.7,-2 -7.7,-7.8 z m 12.5,-10.8 c 0,-3.5 -1.8,-5.1 -4.8,-5.1 -3,0 -4.7,1.6 -4.7,5.1 V 255 c 0,3.5 1.8,5.1 4.7,5.1 3,0 4.8,-1.6 4.8,-5.1 z"
   id="path20"
   inkscape:connector-curvature="0"
   style="fill:#231f20" />
	<path
   d="m 472.1,252.9 c -0.3,0.6 -0.8,0.8 -1.2,0.8 -0.4,0 -0.8,-0.2 -1.1,-0.8 l -5.4,-10.4 v 19 c 0,0.7 -0.8,1.1 -1.5,1.1 -0.8,0 -1.5,-0.4 -1.5,-1.1 v -23.8 c 0,-1.1 0.7,-1.5 1.5,-1.5 1.1,0 1.8,0.6 2.4,1.9 l 5.7,10.8 5.7,-10.8 c 0.7,-1.3 1.3,-1.9 2.4,-1.9 0.8,0 1.5,0.4 1.5,1.5 v 23.8 c 0,0.7 -0.8,1.1 -1.5,1.1 -0.8,0 -1.5,-0.4 -1.5,-1.1 v -18.9 z"
   id="path22"
   inkscape:connector-curvature="0"
   style="fill:#231f20" />
	<path
   d="m 485.6,237.4 c 0,-0.7 0.8,-1 1.5,-1 0.8,0 1.5,0.3 1.5,1 v 24.2 c 0,0.7 -0.8,1.1 -1.5,1.1 -0.8,0 -1.5,-0.4 -1.5,-1.1 z"
   id="path24"
   inkscape:connector-curvature="0"
   style="fill:#231f20" />
	<path
   d="m 504.9,255.7 c 0,-7.2 -11.8,-4 -11.8,-12.7 0,-5.3 4.4,-6.7 7.9,-6.7 2.6,0 6.3,0.8 6.3,2.4 0,0.6 -0.5,1.7 -1.3,1.7 -0.8,0 -1.9,-1.4 -5,-1.4 -2.7,0 -4.9,1 -4.9,3.7 0,6.1 11.8,2.9 11.8,12.7 0,5.1 -3.3,7.6 -7.9,7.6 -4.6,0 -7.6,-2.5 -7.6,-4.1 0,-0.7 0.6,-1.7 1.3,-1.7 1.1,0 1.9,2.9 6.2,2.9 3,0 5,-1.4 5,-4.4 z"
   id="path26"
   inkscape:connector-curvature="0"
   style="fill:#231f20" />
	<path
   d="m 511.9,237.4 c 0,-0.7 0.8,-1 1.5,-1 0.8,0 1.5,0.3 1.5,1 v 24.2 c 0,0.7 -0.8,1.1 -1.5,1.1 -0.8,0 -1.5,-0.4 -1.5,-1.1 z"
   id="path28"
   inkscape:connector-curvature="0"
   style="fill:#231f20" />
	<path
   d="m 519.7,255 v -10.8 c 0,-5.7 3.4,-7.8 7.7,-7.8 4.4,0 7.8,2.1 7.8,7.8 V 255 c 0,5.7 -3.4,7.8 -7.8,7.8 -4.3,0.1 -7.7,-2 -7.7,-7.8 z m 12.5,-10.8 c 0,-3.5 -1.8,-5.1 -4.8,-5.1 -3,0 -4.7,1.6 -4.7,5.1 V 255 c 0,3.5 1.8,5.1 4.7,5.1 3,0 4.8,-1.6 4.8,-5.1 z m -5.6,-11.7 c -0.1,0.1 -0.3,0.1 -0.4,0.1 -0.6,0 -1.1,-0.6 -1.1,-1.2 0,-0.3 0.1,-0.6 0.5,-0.8 l 4.2,-2.2 c 0.1,0 0.3,-0.1 0.4,-0.1 0.6,0 1,0.6 1,1.2 0,0.3 -0.1,0.7 -0.5,0.9 z"
   id="path30"
   inkscape:connector-curvature="0"
   style="fill:#231f20" />
	<path
   d="m 552.5,261.3 -9.4,-18.1 v 18.4 c 0,0.7 -0.8,1.1 -1.5,1.1 -0.8,0 -1.5,-0.4 -1.5,-1.1 v -24.2 c 0,-0.8 0.7,-1 1.5,-1 1.1,0 1.7,0.6 2.3,1.9 l 9,17.5 v -18.4 c 0,-0.7 0.8,-1 1.5,-1 0.8,0 1.5,0.3 1.5,1 v 24.2 c 0,0.7 -0.8,1.1 -1.5,1.1 -0.8,0 -1.5,-0.6 -1.9,-1.4 z"
   id="path32"
   inkscape:connector-curvature="0"
   style="fill:#231f20" />
	<path
   d="m 576,236.4 c 4.4,0 7.8,2.1 7.8,7.8 v 10.6 c 0,5.7 -3.4,7.8 -7.8,7.8 h -6.4 c -0.8,0 -1.4,-0.5 -1.4,-1 v -24.2 c 0,-0.5 0.5,-1 1.4,-1 z m -4.7,2.7 v 20.8 h 4.7 c 3,0 4.8,-1.6 4.8,-5.1 v -10.6 c 0,-3.5 -1.8,-5.1 -4.8,-5.1 z"
   id="path34"
   inkscape:connector-curvature="0"
   style="fill:#231f20" />
	<path
   d="m 591.6,248.2 h 5.6 c 0.6,0 1,0.6 1,1.3 0,0.6 -0.3,1.2 -1,1.2 h -5.6 v 9.2 h 11.2 c 0.6,0 1,0.6 1,1.4 0,0.6 -0.3,1.3 -1,1.3 H 590 c -0.7,0 -1.4,-0.4 -1.4,-1.1 v -24.2 c 0,-0.7 0.7,-1.1 1.4,-1.1 h 12.8 c 0.7,0 1,0.7 1,1.3 0,0.8 -0.4,1.4 -1,1.4 h -11.2 z"
   id="path36"
   inkscape:connector-curvature="0"
   style="fill:#231f20" />
	<path
   d="m 617.3,248.2 h 5.6 c 0.6,0 1,0.6 1,1.3 0,0.6 -0.3,1.2 -1,1.2 h -5.6 v 9.2 h 11.2 c 0.6,0 1,0.6 1,1.4 0,0.6 -0.3,1.3 -1,1.3 h -12.8 c -0.7,0 -1.4,-0.4 -1.4,-1.1 v -24.2 c 0,-0.7 0.7,-1.1 1.4,-1.1 h 12.8 c 0.7,0 1,0.7 1,1.3 0,0.8 -0.4,1.4 -1,1.4 h -11.2 z"
   id="path38"
   inkscape:connector-curvature="0"
   style="fill:#231f20" />
	<path
   d="m 643.9,255.7 c 0,-7.2 -11.8,-4 -11.8,-12.7 0,-5.3 4.4,-6.7 7.9,-6.7 2.6,0 6.3,0.8 6.3,2.4 0,0.6 -0.5,1.7 -1.3,1.7 -0.8,0 -1.9,-1.4 -5,-1.4 -2.7,0 -4.9,1 -4.9,3.7 0,6.1 11.8,2.9 11.8,12.7 0,5.1 -3.3,7.6 -7.9,7.6 -4.6,0 -7.6,-2.5 -7.6,-4.1 0,-0.7 0.6,-1.7 1.3,-1.7 1.1,0 1.9,2.9 6.2,2.9 3.1,0 5,-1.4 5,-4.4 z"
   id="path40"
   inkscape:connector-curvature="0"
   style="fill:#231f20" />
	<path
   d="m 664.5,236.4 c 0.7,0 1.1,0.7 1.1,1.4 0,0.7 -0.4,1.4 -1.1,1.4 h -5.8 v 22.4 c 0,0.7 -0.8,1.1 -1.5,1.1 -0.8,0 -1.5,-0.4 -1.5,-1.1 v -22.4 h -5.8 c -0.7,0 -1.1,-0.7 -1.1,-1.4 0,-0.6 0.4,-1.4 1.1,-1.4 z"
   id="path42"
   inkscape:connector-curvature="0"
   style="fill:#231f20" />
	<path
   d="m 681.3,237.4 c 0,-0.7 0.7,-1 1.5,-1 0.7,0 1.5,0.3 1.5,1 V 255 c 0,5.7 -3.5,7.8 -7.9,7.8 -4.4,0 -7.8,-2.1 -7.8,-7.8 v -17.6 c 0,-0.7 0.8,-1 1.5,-1 0.8,0 1.5,0.3 1.5,1 V 255 c 0,3.5 1.8,5.1 4.8,5.1 3,0 4.9,-1.6 4.9,-5.1 z"
   id="path44"
   inkscape:connector-curvature="0"
   style="fill:#231f20" />
	<path
   d="m 697,236.4 c 4.4,0 7.8,2.1 7.8,7.8 v 10.6 c 0,5.7 -3.4,7.8 -7.8,7.8 h -6.4 c -0.8,0 -1.4,-0.5 -1.4,-1 v -24.2 c 0,-0.5 0.5,-1 1.4,-1 z m -4.7,2.7 v 20.8 h 4.7 c 3,0 4.8,-1.6 4.8,-5.1 v -10.6 c 0,-3.5 -1.8,-5.1 -4.8,-5.1 z"
   id="path46"
   inkscape:connector-curvature="0"
   style="fill:#231f20" />
	<path
   d="m 709.7,237.4 c 0,-0.7 0.8,-1 1.5,-1 0.8,0 1.5,0.3 1.5,1 v 24.2 c 0,0.7 -0.8,1.1 -1.5,1.1 -0.8,0 -1.5,-0.4 -1.5,-1.1 z"
   id="path48"
   inkscape:connector-curvature="0"
   style="fill:#231f20" />
	<path
   d="m 715.9,261.4 c 0,-0.1 0,-0.2 0.1,-0.3 l 7.3,-23.9 c 0.2,-0.7 1,-1 1.9,-1 0.8,0 1.7,0.4 1.9,1 l 7.3,23.9 c 0,0.1 0,0.2 0,0.3 0,0.7 -1,1.3 -1.9,1.3 -0.5,0 -0.9,-0.2 -1.1,-0.7 l -1.6,-5.4 h -9.5 l -1.6,5.4 c -0.1,0.5 -0.6,0.7 -1.1,0.7 -0.7,0 -1.7,-0.5 -1.7,-1.3 z m 13.2,-7.3 -4,-13.5 -4.1,13.5 z"
   id="path50"
   inkscape:connector-curvature="0"
   style="fill:#231f20" />
	<path
   d="m 750,261.3 -9.4,-18.1 v 18.4 c 0,0.7 -0.8,1.1 -1.5,1.1 -0.8,0 -1.5,-0.4 -1.5,-1.1 v -24.2 c 0,-0.8 0.7,-1 1.5,-1 1.1,0 1.7,0.6 2.3,1.9 l 9,17.5 v -18.4 c 0,-0.7 0.8,-1 1.5,-1 0.8,0 1.5,0.3 1.5,1 v 24.2 c 0,0.7 -0.8,1.1 -1.5,1.1 -0.8,0 -1.5,-0.6 -1.9,-1.4 z"
   id="path52"
   inkscape:connector-curvature="0"
   style="fill:#231f20" />
	<path
   d="m 772.2,236.4 c 0.7,0 1.1,0.7 1.1,1.4 0,0.7 -0.4,1.4 -1.1,1.4 h -5.8 v 22.4 c 0,0.7 -0.8,1.1 -1.5,1.1 -0.8,0 -1.5,-0.4 -1.5,-1.1 v -22.4 h -5.8 c -0.7,0 -1.1,-0.7 -1.1,-1.4 0,-0.6 0.4,-1.4 1.1,-1.4 z"
   id="path54"
   inkscape:connector-curvature="0"
   style="fill:#231f20" />
	<path
   d="m 779.3,248.2 h 5.6 c 0.6,0 1,0.6 1,1.3 0,0.6 -0.3,1.2 -1,1.2 h -5.6 v 9.2 h 11.2 c 0.6,0 1,0.6 1,1.4 0,0.6 -0.3,1.3 -1,1.3 h -12.8 c -0.7,0 -1.4,-0.4 -1.4,-1.1 v -24.2 c 0,-0.7 0.7,-1.1 1.4,-1.1 h 12.8 c 0.7,0 1,0.7 1,1.3 0,0.8 -0.4,1.4 -1,1.4 h -11.2 z"
   id="path56"
   inkscape:connector-curvature="0"
   style="fill:#231f20" />
	<path
   d="m 805.9,255.7 c 0,-7.2 -11.8,-4 -11.8,-12.7 0,-5.3 4.4,-6.7 7.9,-6.7 2.6,0 6.3,0.8 6.3,2.4 0,0.6 -0.5,1.7 -1.3,1.7 -0.8,0 -1.9,-1.4 -5,-1.4 -2.7,0 -4.9,1 -4.9,3.7 0,6.1 11.8,2.9 11.8,12.7 0,5.1 -3.3,7.6 -7.9,7.6 -4.6,0 -7.6,-2.5 -7.6,-4.1 0,-0.7 0.6,-1.7 1.3,-1.7 1.1,0 1.9,2.9 6.2,2.9 3.1,0 5,-1.4 5,-4.4 z"
   id="path58"
   inkscape:connector-curvature="0"
   style="fill:#231f20" />
	<path
   d="m 827.8,236.4 c 4.4,0 7.8,2.1 7.8,7.8 v 10.6 c 0,5.7 -3.4,7.8 -7.8,7.8 h -6.4 c -0.8,0 -1.4,-0.5 -1.4,-1 v -24.2 c 0,-0.5 0.5,-1 1.4,-1 z m -4.7,2.7 v 20.8 h 4.7 c 3,0 4.8,-1.6 4.8,-5.1 v -10.6 c 0,-3.5 -1.8,-5.1 -4.8,-5.1 z"
   id="path60"
   inkscape:connector-curvature="0"
   style="fill:#231f20" />
	<path
   d="m 843.5,248.2 h 5.6 c 0.6,0 1,0.6 1,1.3 0,0.6 -0.3,1.2 -1,1.2 h -5.6 v 9.2 h 11.2 c 0.6,0 1,0.6 1,1.4 0,0.6 -0.3,1.3 -1,1.3 h -12.8 c -0.7,0 -1.4,-0.4 -1.4,-1.1 v -24.2 c 0,-0.7 0.7,-1.1 1.4,-1.1 h 12.8 c 0.7,0 1,0.7 1,1.3 0,0.8 -0.4,1.4 -1,1.4 h -11.2 z"
   id="path62"
   inkscape:connector-curvature="0"
   style="fill:#231f20" />
</g>
<g
   id="g88"
   transform="translate(-104.3993,-210.6)">
	<path
   d="m 439.6,293.6 c -6.5,0 -10.1,3.4 -10.1,10.8 v 22.9 c 0,7.4 3.6,10.8 10.3,10.8 8.4,0 9.2,-5.5 9.7,-9 0.2,-1.5 1.3,-2.2 3.2,-2.2 2.1,0 3.2,0.7 3.2,3.6 0,7.5 -6.3,13.5 -16.5,13.5 -8.9,0 -16.3,-4.5 -16.3,-16.6 v -22.9 c 0,-12.1 7.4,-16.6 16.3,-16.6 10.2,0 16.4,5.8 16.4,13.2 0,2.9 -1.1,3.5 -3.2,3.5 -2.1,0 -3.1,-0.8 -3.2,-2.2 -0.1,-3.1 -1.3,-8.8 -9.8,-8.8 z"
   id="path66"
   inkscape:connector-curvature="0"
   style="fill:#231f20" />
	<path
   d="m 463.4,327.2 v -22.9 c 0,-12.1 7.1,-16.6 16.3,-16.6 9.2,0 16.4,4.5 16.4,16.6 v 22.9 c 0,12.1 -7.2,16.6 -16.4,16.6 -9.1,0 -16.3,-4.5 -16.3,-16.6 z m 26.4,-22.9 c 0,-7.4 -3.8,-10.8 -10,-10.8 -6.2,0 -10,3.4 -10,10.8 v 22.9 c 0,7.4 3.7,10.8 10,10.8 6.2,0 10,-3.4 10,-10.8 z"
   id="path68"
   inkscape:connector-curvature="0"
   style="fill:#231f20" />
	<path
   d="m 529.1,322.7 c -0.7,1.3 -1.6,1.7 -2.5,1.7 -0.8,0 -1.7,-0.5 -2.4,-1.7 L 512.8,300.8 V 341 c 0,1.5 -1.6,2.3 -3.2,2.3 -1.6,0 -3.2,-0.8 -3.2,-2.3 v -50.2 c 0,-2.3 1.5,-3.1 3.2,-3.1 2.3,0 3.7,1.4 5.1,4 l 11.9,22.9 12,-22.9 c 1.4,-2.7 2.8,-4 5.1,-4 1.7,0 3.2,0.8 3.2,3.1 V 341 c 0,1.5 -1.6,2.3 -3.2,2.3 -1.6,0 -3.2,-0.8 -3.2,-2.3 v -39.9 z"
   id="path70"
   inkscape:connector-curvature="0"
   style="fill:#231f20" />
	<path
   d="m 557.8,290 c 0,-1.1 1,-2.2 2.6,-2.2 h 14.4 c 9,0 16.1,4.4 16.1,16.4 v 0.7 c 0,11.9 -7.2,16.5 -16.4,16.5 h -10.3 v 19.7 c 0,1.5 -1.6,2.3 -3.2,2.3 -1.6,0 -3.2,-0.8 -3.2,-2.3 z m 6.3,3.6 v 22.5 h 10.3 c 6.2,0 10,-3.5 10,-10.8 v -0.9 c 0,-7.4 -3.8,-10.8 -10,-10.8 z"
   id="path72"
   inkscape:connector-curvature="0"
   style="fill:#231f20" />
	<path
   d="m 625,290 c 0,-1.5 1.5,-2.2 3.2,-2.2 1.5,0 3.2,0.7 3.2,2.2 v 37.2 c 0,12.1 -7.3,16.6 -16.6,16.6 -9.3,0 -16.6,-4.5 -16.6,-16.6 V 290 c 0,-1.5 1.6,-2.2 3.2,-2.2 1.6,0 3.2,0.7 3.2,2.2 v 37.2 c 0,7.4 3.8,10.8 10.2,10.8 6.4,0 10.3,-3.4 10.3,-10.8 V 290 Z"
   id="path74"
   inkscape:connector-curvature="0"
   style="fill:#231f20" />
	<path
   d="m 670.8,287.8 c 1.5,0 2.3,1.4 2.3,2.9 0,1.5 -0.8,3 -2.3,3 h -12.2 v 47.4 c 0,1.5 -1.6,2.3 -3.2,2.3 -1.6,0 -3.2,-0.8 -3.2,-2.3 v -47.4 h -12.3 c -1.4,0 -2.3,-1.4 -2.3,-3 0,-1.4 0.8,-2.9 2.3,-2.9 z"
   id="path76"
   inkscape:connector-curvature="0"
   style="fill:#231f20" />
	<path
   d="m 671.1,340.7 c 0,-0.2 0.1,-0.4 0.2,-0.6 l 15.5,-50.5 c 0.5,-1.5 2.2,-2.2 4,-2.2 1.7,0 3.5,0.8 4,2.2 l 15.5,50.5 c 0,0.2 0.1,0.4 0.1,0.5 0,1.5 -2.1,2.7 -4,2.7 -1.1,0 -2,-0.5 -2.3,-1.4 l -3.3,-11.3 h -20 l -3.3,11.3 c -0.3,1 -1.2,1.4 -2.4,1.4 -1.8,0 -4,-1 -4,-2.6 z m 28,-15.4 -8.4,-28.6 -8.6,28.6 z"
   id="path78"
   inkscape:connector-curvature="0"
   style="fill:#231f20" />
	<path
   d="m 732.9,293.6 c -6.5,0 -10.1,3.4 -10.1,10.8 v 22.9 c 0,7.4 3.6,10.8 10.3,10.8 8.4,0 9.2,-5.5 9.7,-9 0.2,-1.5 1.3,-2.2 3.2,-2.2 2.1,0 3.2,0.7 3.2,3.6 0,7.5 -6.3,13.5 -16.5,13.5 -8.9,0 -16.3,-4.5 -16.3,-16.6 v -22.9 c 0,-12.1 7.4,-16.6 16.3,-16.6 10.2,0 16.4,5.8 16.4,13.2 0,2.9 -1.1,3.5 -3.2,3.5 -2.1,0 -3.1,-0.8 -3.2,-2.2 0,-3.1 -1.3,-8.8 -9.8,-8.8 z"
   id="path80"
   inkscape:connector-curvature="0"
   style="fill:#231f20" />
	<path
   d="m 757.3,290 c 0,-1.5 1.6,-2.2 3.2,-2.2 1.6,0 3.2,0.7 3.2,2.2 v 51.1 c 0,1.5 -1.6,2.3 -3.2,2.3 -1.6,0 -3.2,-0.8 -3.2,-2.3 z"
   id="path82"
   inkscape:connector-curvature="0"
   style="fill:#231f20" />
	<path
   d="m 774,327.2 v -22.9 c 0,-12.1 7.1,-16.6 16.3,-16.6 9.2,0 16.4,4.5 16.4,16.6 v 22.9 c 0,12.1 -7.2,16.6 -16.4,16.6 -9.2,0 -16.3,-4.5 -16.3,-16.6 z m 26.3,-22.9 c 0,-7.4 -3.8,-10.8 -10,-10.8 -6.2,0 -10,3.4 -10,10.8 v 22.9 c 0,7.4 3.7,10.8 10,10.8 6.3,0 10,-3.4 10,-10.8 z m -11.9,-24.7 c -0.3,0.2 -0.5,0.3 -0.8,0.3 -1.3,0 -2.3,-1.4 -2.3,-2.6 0,-0.7 0.3,-1.3 1,-1.7 l 8.9,-4.7 c 0.2,-0.1 0.5,-0.2 0.8,-0.2 1.3,0 2.1,1.4 2.1,2.6 0,0.7 -0.3,1.4 -1.1,1.8 z"
   id="path84"
   inkscape:connector-curvature="0"
   style="fill:#231f20" />
	<path
   d="M 843.1,340.4 823.3,302.2 V 341 c 0,1.5 -1.6,2.3 -3.2,2.3 -1.6,0 -3.2,-0.8 -3.2,-2.3 v -51 c 0,-1.6 1.5,-2.2 3.2,-2.2 2.3,0 3.5,1.4 4.9,4 l 18.9,37 V 290 c 0,-1.5 1.6,-2.2 3.2,-2.2 1.6,0 3.2,0.7 3.2,2.2 v 51.1 c 0,1.5 -1.6,2.3 -3.2,2.3 -1.7,-0.1 -3.1,-1.3 -4,-3 z"
   id="path86"
   inkscape:connector-curvature="0"
   style="fill:#231f20" />
</g>
<g
   id="g92"
   transform="translate(-104.3993,-210.6)">
	<rect
   x="422"
   y="273.20001"
   width="350.20001"
   height="2"
   id="rect90"
   style="fill:#231f20" />
</g>
<g
   id="g96"
   transform="translate(-104.3993,-210.6)">
	<rect
   x="812.79999"
   y="273.20001"
   width="40.599998"
   height="2"
   id="rect94"
   style="fill:#231f20" />
</g>
</svg>