<?xml version="1.0" encoding="UTF-8" standalone="no"?>
<svg
   width="751.301"
   height="139.8"
   version="1.1"
   id="svg22"
   sodipodi:docname="logo-horizontal.min.svg"
   inkscape:version="1.2.1 (9c6d41e410, 2022-07-14)"
   xmlns:inkscape="http://www.inkscape.org/namespaces/inkscape"
   xmlns:sodipodi="http://sodipodi.sourceforge.net/DTD/sodipodi-0.dtd"
   xmlns="http://www.w3.org/2000/svg"
   xmlns:svg="http://www.w3.org/2000/svg">
  <defs
     id="defs26" />
  <sodipodi:namedview
     id="namedview24"
     pagecolor="#ffffff"
     bordercolor="#000000"
     borderopacity="0.25"
     inkscape:showpageshadow="2"
     inkscape:pageopacity="0.0"
     inkscape:pagecheckerboard="0"
     inkscape:deskcolor="#d1d1d1"
     showgrid="false"
     inkscape:zoom="1.6664426"
     inkscape:cx="255.93441"
     inkscape:cy="69.60936"
     inkscape:window-width="1920"
     inkscape:window-height="1011"
     inkscape:window-x="0"
     inkscape:window-y="0"
     inkscape:window-maximized="1"
     inkscape:current-layer="svg22" />
  <path
     d="M214.9.1s-8.7-.1-15.4-.1l-15.4.1c-27 2.3-28.4 16.9-28.4 36.4v19.3c.1 5.3 2.7 7.9 7.9 8 5.4 0 8-2.7 8-8V36.6c-.1-9.2-2.3-18.3 13.6-20.4.7-.1 3.7-.1 6.8-.2v39.8c0 5.3 2.6 8 8 8 5.2 0 7.8-2.7 7.9-8V16c2.7 0 4.9.1 5.7.2 15.9 2.1 13.6 11.1 13.6 20.4v19.2c0 5.3 2.6 8 8 8 5.2 0 7.8-2.7 7.9-8V36.5c.2-19.4-1.2-34.1-28.2-36.4zM249.7 76.1s-8.7-.1-15.4-.1l-15.4.1c-27 2.3-28.4 16.9-28.4 36.4v19.3c.1 5.3 2.7 7.9 7.9 8 5.4 0 8-2.7 8-8v-19.2c-.1-9.2-2.3-18.3 13.6-20.4.7-.1 3.7-.1 6.8-.2v39.8c0 5.3 2.6 8 8 8 5.2 0 7.8-2.7 7.9-8V92c2.7 0 4.9.1 5.7.2 15.9 2.1 13.6 11.1 13.6 20.4v19.2c0 5.3 2.6 8 8 8 5.2 0 7.8-2.7 7.9-8v-19.3c.3-19.5-1.2-34.1-28.2-36.4z"
     fill="#231f20"
     id="path2"
     style="stroke:#676767;stroke-opacity:1;stroke-width:1;stroke-dasharray:none" />
  <path
     d="M104.7 63c-14.1-3.3-24.6-15.9-24.6-31C80.1 14.4 94.4.1 112 .1c17.6 0 31.9 14.3 31.9 31.9 0 5.9-1.6 11.5-4.4 16.2-1 2.4-1.5 5.1-1.5 7.8 0 10.1 7.1 18.6 16.5 20.9h-.1c14 3.4 24.4 16 24.4 31 0 17.6-14.3 31.9-31.9 31.9-17.6 0-31.9-14.3-31.9-31.9 0-5.8 1.5-11.2 4.3-15.9 1-2.5 1.6-5.3 1.6-8.1-.1-10.1-7-18.5-16.2-20.9z"
     fill="#8cd3d8"
     id="path4" />
  <path
     fill="#8cd3d8"
     d="M95.101.1h16.8v17.5h-16.8zM129.301 125.5h17.4v14.2h-17.4z"
     id="path6" />
  <path
     d="M31.7.1h16c5.3.1 7.9 2.7 8 7.9 0 5.4-2.7 8-8 8H31.8c-10.6-.1-15.9 5.2-15.9 15.9 0 10.6 5.3 15.9 15.9 15.9h15.9c5.3.1 8 2.7 8 7.9 0 5.3-2.6 8-7.9 8H31.9C10.6 63.7 0 53.1 0 31.8-.1 10.7 10.5.1 31.7.1zM65.5 76h16c5.3.1 7.9 2.7 8 7.9 0 5.4-2.7 8-8 8H65.6c-10.6-.1-15.9 5.2-15.9 15.9 0 10.6 5.3 15.9 15.9 15.9h15.9c5.3.1 8 2.7 8 7.9 0 5.3-2.6 8-7.9 8H65.7c-21.3 0-31.9-10.6-31.9-31.9C33.6 86.6 44.2 76 65.5 76z"
     fill="#231f20"
     id="path8"
     style="stroke:#676767;stroke-opacity:1;stroke-width:1;stroke-dasharray:none" />
  <path
     d="M87.7 63c-14.1-3.3-24.6-15.9-24.6-31C63.1 14.4 77.4.1 95 .1c17.6 0 31.9 14.3 31.9 31.9 0 5.9-1.6 11.5-4.4 16.2-1 2.4-1.5 5.1-1.5 7.8 0 10.1 7.1 18.6 16.5 20.9h-.1c14 3.4 24.4 16 24.4 31 0 17.6-14.3 31.9-31.9 31.9-17.6 0-31.9-14.3-31.9-31.9 0-5.8 1.5-11.2 4.3-15.9 1-2.5 1.6-5.3 1.6-8.1-.1-10.1-7-18.5-16.2-20.9z"
     fill="#008b94"
     id="path10" />
  <g
     fill="#231f20"
     id="g14"
     style="stroke:#676767;stroke-opacity:1;stroke-width:1;stroke-dasharray:none">
    <path
       d="M325.3 28.5c-3.1 0-4.8 1.6-4.8 5.1v10.8c0 3.5 1.7 5.1 4.9 5.1 4 0 4.4-2.6 4.6-4.3.1-.7.6-1 1.5-1 1 0 1.5.3 1.5 1.7 0 3.6-3 6.4-7.8 6.4-4.2 0-7.7-2.1-7.7-7.8V33.7c0-5.7 3.5-7.8 7.7-7.8 4.8 0 7.8 2.7 7.8 6.3 0 1.4-.5 1.7-1.5 1.7s-1.5-.4-1.5-1c-.1-1.7-.7-4.4-4.7-4.4zM336.6 44.4V33.6c0-5.7 3.4-7.8 7.7-7.8 4.4 0 7.8 2.1 7.8 7.8v10.8c0 5.7-3.4 7.8-7.8 7.8-4.3.1-7.7-2-7.7-7.8zm12.5-10.8c0-3.5-1.8-5.1-4.8-5.1s-4.7 1.6-4.7 5.1v10.8c0 3.5 1.8 5.1 4.7 5.1 3 0 4.8-1.6 4.8-5.1zM367.7 42.3c-.3.6-.8.8-1.2.8-.4 0-.8-.2-1.1-.8L360 31.9v19c0 .7-.8 1.1-1.5 1.1-.8 0-1.5-.4-1.5-1.1V27.1c0-1.1.7-1.5 1.5-1.5 1.1 0 1.8.6 2.4 1.9l5.7 10.8 5.7-10.8c.7-1.3 1.3-1.9 2.4-1.9.8 0 1.5.4 1.5 1.5v23.8c0 .7-.8 1.1-1.5 1.1-.8 0-1.5-.4-1.5-1.1V32zM381.2 26.8c0-.7.8-1 1.5-1 .8 0 1.5.3 1.5 1V51c0 .7-.8 1.1-1.5 1.1-.8 0-1.5-.4-1.5-1.1zM400.5 45.1c0-7.2-11.8-4-11.8-12.7 0-5.3 4.4-6.7 7.9-6.7 2.6 0 6.3.8 6.3 2.4 0 .6-.5 1.7-1.3 1.7s-1.9-1.4-5-1.4c-2.7 0-4.9 1-4.9 3.7 0 6.1 11.8 2.9 11.8 12.7 0 5.1-3.3 7.6-7.9 7.6-4.6 0-7.6-2.5-7.6-4.1 0-.7.6-1.7 1.3-1.7 1.1 0 1.9 2.9 6.2 2.9 3 0 5-1.4 5-4.4zM407.5 26.8c0-.7.8-1 1.5-1 .8 0 1.5.3 1.5 1V51c0 .7-.8 1.1-1.5 1.1-.8 0-1.5-.4-1.5-1.1zM415.3 44.4V33.6c0-5.7 3.4-7.8 7.7-7.8 4.4 0 7.8 2.1 7.8 7.8v10.8c0 5.7-3.4 7.8-7.8 7.8-4.3.1-7.7-2-7.7-7.8zm12.5-10.8c0-3.5-1.8-5.1-4.8-5.1s-4.7 1.6-4.7 5.1v10.8c0 3.5 1.8 5.1 4.7 5.1 3 0 4.8-1.6 4.8-5.1zm-5.6-11.7c-.1.1-.3.1-.4.1-.6 0-1.1-.6-1.1-1.2 0-.3.1-.6.5-.8l4.2-2.2c.1 0 .3-.1.4-.1.6 0 1 .6 1 1.2 0 .3-.1.7-.5.9zM448.1 50.7l-9.4-18.1V51c0 .7-.8 1.1-1.5 1.1-.8 0-1.5-.4-1.5-1.1V26.8c0-.8.7-1 1.5-1 1.1 0 1.7.6 2.3 1.9l9 17.5V26.8c0-.7.8-1 1.5-1 .8 0 1.5.3 1.5 1V51c0 .7-.8 1.1-1.5 1.1-.8 0-1.5-.6-1.9-1.4zM471.6 25.8c4.4 0 7.8 2.1 7.8 7.8v10.6c0 5.7-3.4 7.8-7.8 7.8h-6.4c-.8 0-1.4-.5-1.4-1V26.8c0-.5.5-1 1.4-1zm-4.7 2.7v20.8h4.7c3 0 4.8-1.6 4.8-5.1V33.6c0-3.5-1.8-5.1-4.8-5.1zM487.2 37.6h5.6c.6 0 1 .6 1 1.3 0 .6-.3 1.2-1 1.2h-5.6v9.2h11.2c.6 0 1 .6 1 1.4 0 .6-.3 1.3-1 1.3h-12.8c-.7 0-1.4-.4-1.4-1.1V26.7c0-.7.7-1.1 1.4-1.1h12.8c.7 0 1 .7 1 1.3 0 .8-.4 1.4-1 1.4h-11.2zM512.9 37.6h5.6c.6 0 1 .6 1 1.3 0 .6-.3 1.2-1 1.2h-5.6v9.2h11.2c.6 0 1 .6 1 1.4 0 .6-.3 1.3-1 1.3h-12.8c-.7 0-1.4-.4-1.4-1.1V26.7c0-.7.7-1.1 1.4-1.1h12.8c.7 0 1 .7 1 1.3 0 .8-.4 1.4-1 1.4h-11.2zM539.5 45.1c0-7.2-11.8-4-11.8-12.7 0-5.3 4.4-6.7 7.9-6.7 2.6 0 6.3.8 6.3 2.4 0 .6-.5 1.7-1.3 1.7s-1.9-1.4-5-1.4c-2.7 0-4.9 1-4.9 3.7 0 6.1 11.8 2.9 11.8 12.7 0 5.1-3.3 7.6-7.9 7.6-4.6 0-7.6-2.5-7.6-4.1 0-.7.6-1.7 1.3-1.7 1.1 0 1.9 2.9 6.2 2.9 3.1 0 5-1.4 5-4.4zM560.1 25.8c.7 0 1.1.7 1.1 1.4s-.4 1.4-1.1 1.4h-5.8V51c0 .7-.8 1.1-1.5 1.1-.8 0-1.5-.4-1.5-1.1V28.6h-5.8c-.7 0-1.1-.7-1.1-1.4 0-.6.4-1.4 1.1-1.4zM576.9 26.8c0-.7.7-1 1.5-1 .7 0 1.5.3 1.5 1v17.6c0 5.7-3.5 7.8-7.9 7.8s-7.8-2.1-7.8-7.8V26.8c0-.7.8-1 1.5-1 .8 0 1.5.3 1.5 1v17.6c0 3.5 1.8 5.1 4.8 5.1s4.9-1.6 4.9-5.1zM592.6 25.8c4.4 0 7.8 2.1 7.8 7.8v10.6c0 5.7-3.4 7.8-7.8 7.8h-6.4c-.8 0-1.4-.5-1.4-1V26.8c0-.5.5-1 1.4-1zm-4.7 2.7v20.8h4.7c3 0 4.8-1.6 4.8-5.1V33.6c0-3.5-1.8-5.1-4.8-5.1zM605.3 26.8c0-.7.8-1 1.5-1 .8 0 1.5.3 1.5 1V51c0 .7-.8 1.1-1.5 1.1-.8 0-1.5-.4-1.5-1.1zM611.5 50.8c0-.1 0-.2.1-.3l7.3-23.9c.2-.7 1-1 1.9-1 .8 0 1.7.4 1.9 1l7.3 23.9v.3c0 .7-1 1.3-1.9 1.3-.5 0-.9-.2-1.1-.7l-1.6-5.4h-9.5l-1.6 5.4c-.1.5-.6.7-1.1.7-.7 0-1.7-.5-1.7-1.3zm13.2-7.3l-4-13.5-4.1 13.5zM645.6 50.7l-9.4-18.1V51c0 .7-.8 1.1-1.5 1.1-.8 0-1.5-.4-1.5-1.1V26.8c0-.8.7-1 1.5-1 1.1 0 1.7.6 2.3 1.9l9 17.5V26.8c0-.7.8-1 1.5-1 .8 0 1.5.3 1.5 1V51c0 .7-.8 1.1-1.5 1.1-.8 0-1.5-.6-1.9-1.4zM667.8 25.8c.7 0 1.1.7 1.1 1.4s-.4 1.4-1.1 1.4H662V51c0 .7-.8 1.1-1.5 1.1-.8 0-1.5-.4-1.5-1.1V28.6h-5.8c-.7 0-1.1-.7-1.1-1.4 0-.6.4-1.4 1.1-1.4zM674.9 37.6h5.6c.6 0 1 .6 1 1.3 0 .6-.3 1.2-1 1.2h-5.6v9.2h11.2c.6 0 1 .6 1 1.4 0 .6-.3 1.3-1 1.3h-12.8c-.7 0-1.4-.4-1.4-1.1V26.7c0-.7.7-1.1 1.4-1.1h12.8c.7 0 1 .7 1 1.3 0 .8-.4 1.4-1 1.4h-11.2zM701.5 45.1c0-7.2-11.8-4-11.8-12.7 0-5.3 4.4-6.7 7.9-6.7 2.6 0 6.3.8 6.3 2.4 0 .6-.5 1.7-1.3 1.7s-1.9-1.4-5-1.4c-2.7 0-4.9 1-4.9 3.7 0 6.1 11.8 2.9 11.8 12.7 0 5.1-3.3 7.6-7.9 7.6-4.6 0-7.6-2.5-7.6-4.1 0-.7.6-1.7 1.3-1.7 1.1 0 1.9 2.9 6.2 2.9 3.1 0 5-1.4 5-4.4zM723.4 25.8c4.4 0 7.8 2.1 7.8 7.8v10.6c0 5.7-3.4 7.8-7.8 7.8H717c-.8 0-1.4-.5-1.4-1V26.8c0-.5.5-1 1.4-1zm-4.7 2.7v20.8h4.7c3 0 4.8-1.6 4.8-5.1V33.6c0-3.5-1.8-5.1-4.8-5.1zM739.1 37.6h5.6c.6 0 1 .6 1 1.3 0 .6-.3 1.2-1 1.2h-5.6v9.2h11.2c.6 0 1 .6 1 1.4 0 .6-.3 1.3-1 1.3h-12.8c-.7 0-1.4-.4-1.4-1.1V26.7c0-.7.7-1.1 1.4-1.1h12.8c.7 0 1 .7 1 1.3 0 .8-.4 1.4-1 1.4h-11.2z"
       id="path12"
       style="stroke:#676767;stroke-opacity:1;stroke-width:1;stroke-dasharray:none" />
  </g>
  <g
     fill="#231f20"
     id="g18"
     style="stroke:#676767;stroke-opacity:1;stroke-width:1;stroke-dasharray:none">
    <path
       d="M335.2 83c-6.5 0-10.1 3.4-10.1 10.8v22.9c0 7.4 3.6 10.8 10.3 10.8 8.4 0 9.2-5.5 9.7-9 .2-1.5 1.3-2.2 3.2-2.2 2.1 0 3.2.7 3.2 3.6 0 7.5-6.3 13.5-16.5 13.5-8.9 0-16.3-4.5-16.3-16.6V93.9c0-12.1 7.4-16.6 16.3-16.6 10.2 0 16.4 5.8 16.4 13.2 0 2.9-1.1 3.5-3.2 3.5s-3.1-.8-3.2-2.2c-.1-3.1-1.3-8.8-9.8-8.8zM359 116.6V93.7c0-12.1 7.1-16.6 16.3-16.6 9.2 0 16.4 4.5 16.4 16.6v22.9c0 12.1-7.2 16.6-16.4 16.6-9.1 0-16.3-4.5-16.3-16.6zm26.4-22.9c0-7.4-3.8-10.8-10-10.8s-10 3.4-10 10.8v22.9c0 7.4 3.7 10.8 10 10.8 6.2 0 10-3.4 10-10.8zM424.7 112.1c-.7 1.3-1.6 1.7-2.5 1.7-.8 0-1.7-.5-2.4-1.7l-11.4-21.9v40.2c0 1.5-1.6 2.3-3.2 2.3s-3.2-.8-3.2-2.3V80.2c0-2.3 1.5-3.1 3.2-3.1 2.3 0 3.7 1.4 5.1 4l11.9 22.9 12-22.9c1.4-2.7 2.8-4 5.1-4 1.7 0 3.2.8 3.2 3.1v50.2c0 1.5-1.6 2.3-3.2 2.3s-3.2-.8-3.2-2.3V90.5zM453.4 79.4c0-1.1 1-2.2 2.6-2.2h14.4c9 0 16.1 4.4 16.1 16.4v.7c0 11.9-7.2 16.5-16.4 16.5h-10.3v19.7c0 1.5-1.6 2.3-3.2 2.3s-3.2-.8-3.2-2.3zm6.3 3.6v22.5H470c6.2 0 10-3.5 10-10.8v-.9c0-7.4-3.8-10.8-10-10.8zM520.6 79.4c0-1.5 1.5-2.2 3.2-2.2 1.5 0 3.2.7 3.2 2.2v37.2c0 12.1-7.3 16.6-16.6 16.6s-16.6-4.5-16.6-16.6V79.4c0-1.5 1.6-2.2 3.2-2.2s3.2.7 3.2 2.2v37.2c0 7.4 3.8 10.8 10.2 10.8 6.4 0 10.3-3.4 10.3-10.8V79.4zM566.4 77.2c1.5 0 2.3 1.4 2.3 2.9s-.8 3-2.3 3h-12.2v47.4c0 1.5-1.6 2.3-3.2 2.3s-3.2-.8-3.2-2.3V83.1h-12.3c-1.4 0-2.3-1.4-2.3-3 0-1.4.8-2.9 2.3-2.9zM566.7 130.1c0-.2.1-.4.2-.6L582.4 79c.5-1.5 2.2-2.2 4-2.2 1.7 0 3.5.8 4 2.2l15.5 50.5c0 .2.1.4.1.5 0 1.5-2.1 2.7-4 2.7-1.1 0-2-.5-2.3-1.4l-3.3-11.3h-20l-3.3 11.3c-.3 1-1.2 1.4-2.4 1.4-1.8 0-4-1-4-2.6zm28-15.4l-8.4-28.6-8.6 28.6zM628.5 83c-6.5 0-10.1 3.4-10.1 10.8v22.9c0 7.4 3.6 10.8 10.3 10.8 8.4 0 9.2-5.5 9.7-9 .2-1.5 1.3-2.2 3.2-2.2 2.1 0 3.2.7 3.2 3.6 0 7.5-6.3 13.5-16.5 13.5-8.9 0-16.3-4.5-16.3-16.6V93.9c0-12.1 7.4-16.6 16.3-16.6 10.2 0 16.4 5.8 16.4 13.2 0 2.9-1.1 3.5-3.2 3.5s-3.1-.8-3.2-2.2c0-3.1-1.3-8.8-9.8-8.8zM652.9 79.4c0-1.5 1.6-2.2 3.2-2.2s3.2.7 3.2 2.2v51.1c0 1.5-1.6 2.3-3.2 2.3s-3.2-.8-3.2-2.3zM669.6 116.6V93.7c0-12.1 7.1-16.6 16.3-16.6 9.2 0 16.4 4.5 16.4 16.6v22.9c0 12.1-7.2 16.6-16.4 16.6s-16.3-4.5-16.3-16.6zm26.3-22.9c0-7.4-3.8-10.8-10-10.8s-10 3.4-10 10.8v22.9c0 7.4 3.7 10.8 10 10.8s10-3.4 10-10.8zM684 69c-.3.2-.5.3-.8.3-1.3 0-2.3-1.4-2.3-2.6 0-.7.3-1.3 1-1.7l8.9-4.7c.2-.1.5-.2.8-.2 1.3 0 2.1 1.4 2.1 2.6 0 .7-.3 1.4-1.1 1.8zM738.7 129.8l-19.8-38.2v38.8c0 1.5-1.6 2.3-3.2 2.3s-3.2-.8-3.2-2.3v-51c0-1.6 1.5-2.2 3.2-2.2 2.3 0 3.5 1.4 4.9 4l18.9 37V79.4c0-1.5 1.6-2.2 3.2-2.2s3.2.7 3.2 2.2v51.1c0 1.5-1.6 2.3-3.2 2.3-1.7-.1-3.1-1.3-4-3z"
       id="path16"
       style="stroke:#676767;stroke-opacity:1;stroke-width:1;stroke-dasharray:none" />
  </g>
  <path
     fill="#231f20"
     d="M317.6 62.6h350.2v2H317.6zM708.4 62.6H749v2h-40.6z"
     id="path20"
     style="stroke:#676767;stroke-opacity:1;stroke-width:1;stroke-dasharray:none" />
</svg>
