<svg xmlns="http://www.w3.org/2000/svg" width="300" height="139.8"><path d="M214.9.1s-8.7-.1-15.4-.1l-15.4.1c-27 2.3-28.4 16.9-28.4 36.4v19.3c.1 5.3 2.7 7.9 7.9 8 5.4 0 8-2.7 8-8V36.6c-.1-9.2-2.3-18.3 13.6-20.4.7-.1 3.7-.1 6.8-.2v39.8c0 5.3 2.6 8 8 8 5.2 0 7.8-2.7 7.9-8V16c2.7 0 4.9.1 5.7.2 15.9 2.1 13.6 11.1 13.6 20.4v19.2c0 5.3 2.6 8 8 8 5.2 0 7.8-2.7 7.9-8V36.5c.2-19.4-1.2-34.1-28.2-36.4zM249.7 76.1s-8.7-.1-15.4-.1l-15.4.1c-27 2.3-28.4 16.9-28.4 36.4v19.3c.1 5.3 2.7 7.9 7.9 8 5.4 0 8-2.7 8-8v-19.2c-.1-9.2-2.3-18.3 13.6-20.4.7-.1 3.7-.1 6.8-.2v39.8c0 5.3 2.6 8 8 8 5.2 0 7.8-2.7 7.9-8V92c2.7 0 4.9.1 5.7.2 15.9 2.1 13.6 11.1 13.6 20.4v19.2c0 5.3 2.6 8 8 8 5.2 0 7.8-2.7 7.9-8v-19.3c.3-19.5-1.2-34.1-28.2-36.4z" fill="#231f20"/><path d="M104.7 63c-14.1-3.3-24.6-15.9-24.6-31C80.1 14.4 94.4.1 112 .1c17.6 0 31.9 14.3 31.9 31.9 0 5.9-1.6 11.5-4.4 16.2-1 2.4-1.5 5.1-1.5 7.8 0 10.1 7.1 18.6 16.5 20.9h-.1c14 3.4 24.4 16 24.4 31 0 17.6-14.3 31.9-31.9 31.9-17.6 0-31.9-14.3-31.9-31.9 0-5.8 1.5-11.2 4.3-15.9 1-2.5 1.6-5.3 1.6-8.1-.1-10.1-7-18.5-16.2-20.9z" fill="#8cd3d8"/><path fill="#8cd3d8" d="M95.101.1h16.8v17.5h-16.8zM129.301 125.5h17.4v14.2h-17.4z"/><path d="M31.7.1h16c5.3.1 7.9 2.7 8 7.9 0 5.4-2.7 8-8 8H31.8c-10.6-.1-15.9 5.2-15.9 15.9 0 10.6 5.3 15.9 15.9 15.9h15.9c5.3.1 8 2.7 8 7.9 0 5.3-2.6 8-7.9 8H31.9C10.6 63.7 0 53.1 0 31.8-.1 10.7 10.5.1 31.7.1zM65.5 76h16c5.3.1 7.9 2.7 8 7.9 0 5.4-2.7 8-8 8H65.6c-10.6-.1-15.9 5.2-15.9 15.9 0 10.6 5.3 15.9 15.9 15.9h15.9c5.3.1 8 2.7 8 7.9 0 5.3-2.6 8-7.9 8H65.7c-21.3 0-31.9-10.6-31.9-31.9C33.6 86.6 44.2 76 65.5 76z" fill="#231f20"/><path d="M87.7 63c-14.1-3.3-24.6-15.9-24.6-31C63.1 14.4 77.4.1 95 .1c17.6 0 31.9 14.3 31.9 31.9 0 5.9-1.6 11.5-4.4 16.2-1 2.4-1.5 5.1-1.5 7.8 0 10.1 7.1 18.6 16.5 20.9h-.1c14 3.4 24.4 16 24.4 31 0 17.6-14.3 31.9-31.9 31.9-17.6 0-31.9-14.3-31.9-31.9 0-5.8 1.5-11.2 4.3-15.9 1-2.5 1.6-5.3 1.6-8.1-.1-10.1-7-18.5-16.2-20.9z" fill="#008b94"/></svg>