<svg xmlns="http://www.w3.org/2000/svg" viewBox="5.5 3.5 53 84" stroke-linejoin="round" xmlns:c2pa="http://c2pa.org/manifest">
<path d="M16 78 L24 82 L24 86 L14 86 Z" fill="#E6C03D" stroke="#E6C03D" stroke-width="2"/>
<path d="M48 78 L40 82 L40 86 L50 86 Z" fill="#E6C03D" stroke="#E6C03D" stroke-width="2"/>
<path d="M18 50 L10 64" stroke="#E6C03D" stroke-width="6" stroke-linecap="round"/>
<path d="M46 50 L54 64" stroke="#E6C03D" stroke-width="6" stroke-linecap="round"/>
<path d="M18 48 Q32 40 46 48 L44 78 L20 78 Z" fill="#140E02" stroke="#E6C03D" stroke-width="2"/>
<rect x="20" y="66" width="24" height="5" fill="#E6C03D" stroke="#E6C03D" stroke-width="1.5"/>
<rect x="30" y="66" width="4" height="5" fill="#140E02" stroke="#E6C03D" stroke-width="1"/>
<circle cx="32" cy="40" r="12" fill="#140E02" stroke="#E6C03D" stroke-width="2"/>
<path d="M20 40 Q32 64 44 40 Q40 52 32 54 Q24 52 20 40 Z" fill="#140E02" stroke="#E6C03D" stroke-width="2"/>
<ellipse cx="32" cy="42" rx="3.2" ry="2.6" fill="#140E02" stroke="#E6C03D" stroke-width="1.2"/>
<circle cx="27" cy="37" r="1.3" fill="#E6C03D"/>
<circle cx="37" cy="37" r="1.3" fill="#E6C03D"/>
<path d="M18 34 Q32 -2 46 34 Z" fill="#E6C03D" stroke="#E6C03D" stroke-width="2"/>
<path d="M18 33 Q32 28 46 33" fill="none" stroke="#140E02" stroke-width="1.4"/>
<circle cx="46" cy="8" r="3" fill="#140E02" stroke="#E6C03D" stroke-width="1.5"/>
<circle cx="10" cy="64" r="3" fill="#140E02" stroke="#E6C03D" stroke-width="1.5"/>
<circle cx="54" cy="64" r="3" fill="#140E02" stroke="#E6C03D" stroke-width="1.5"/>
</svg>