<svg xmlns="http://www.w3.org/2000/svg" width="278.001" height="225.4"><path d="M214.9.1s-8.7-.1-15.4-.1l-15.4.1c-27 2.3-28.4 16.9-28.4 36.4v19.3c.1 5.3 2.7 7.9 7.9 8 5.4 0 8-2.7 8-8V36.6c-.1-9.2-2.3-18.3 13.6-20.4.7-.1 3.7-.1 6.8-.2v39.8c0 5.3 2.6 8 8 8 5.2 0 7.8-2.7 7.9-8V16c2.7 0 4.9.1 5.7.2 15.9 2.1 13.6 11.1 13.6 20.4v19.2c0 5.3 2.6 8 8 8 5.2 0 7.8-2.7 7.9-8V36.5c.2-19.4-1.3-34.1-28.2-36.4zM249.7 76.1s-8.7-.1-15.4-.1l-15.4.1c-27 2.3-28.4 16.9-28.4 36.4v19.3c.1 5.3 2.7 7.9 7.9 8 5.4 0 8-2.7 8-8v-19.2c-.1-9.2-2.3-18.3 13.6-20.4.7-.1 3.7-.1 6.8-.2v39.8c0 5.3 2.6 8 8 8 5.2 0 7.8-2.7 7.9-8V92c2.7 0 4.9.1 5.7.2 15.9 2.1 13.6 11.1 13.6 20.4v19.2c0 5.3 2.6 8 8 8 5.2 0 7.8-2.7 7.9-8v-19.3c.2-19.5-1.2-34.1-28.2-36.4z"/><path d="M154.2 76.9h.1c-9.4-2.3-16.5-10.8-16.5-20.9 0-2.8.5-5.4 1.5-7.8 2.8-4.7 4.4-10.3 4.4-16.2 0-17.6-14.3-31.9-31.9-31.9H95.1v4.8C86.1 10.5 80 20.5 80 32c0 15.1 10.5 27.8 24.6 31 9.3 2.4 16.1 10.8 16.1 20.8 0 2.9-.6 5.6-1.6 8.1-2.7 4.7-4.3 10.1-4.3 15.9 0 11.2 5.7 21 14.4 26.7v5.2h17.4c17.6 0 31.9-14.3 31.9-31.9.1-15-10.3-27.6-24.3-30.9z" fill="#8dd4d9"/><path d="M31.7.1h16c5.3.1 7.9 2.7 8 7.9 0 5.4-2.7 8-8 8H31.8c-10.6-.1-15.9 5.2-15.9 15.9 0 10.6 5.3 15.9 15.9 15.9h15.9c5.3.1 8 2.7 8 7.9 0 5.3-2.6 8-7.9 8H31.9C10.6 63.7 0 53.1 0 31.8-.1 10.7 10.5.1 31.7.1zM65.4 76h16c5.3.1 7.9 2.7 8 7.9 0 5.4-2.7 8-8 8H65.5c-10.6-.1-15.9 5.2-15.9 15.9 0 10.6 5.3 15.9 15.9 15.9h15.9c5.3.1 8 2.7 8 7.9 0 5.3-2.6 8-7.9 8H65.6c-21.3 0-31.9-10.6-31.9-31.9C33.6 86.6 44.2 76 65.4 76z"/><path d="M87.7 63c-14.1-3.3-24.6-15.9-24.6-31C63.1 14.4 77.4.1 95 .1c17.6 0 31.9 14.3 31.9 31.9 0 5.9-1.6 11.5-4.4 16.2-1 2.4-1.5 5.1-1.5 7.8 0 10.1 7.1 18.6 16.5 20.9h-.1c14 3.4 24.4 16 24.4 31 0 17.6-14.3 31.9-31.9 31.9-17.6 0-31.9-14.3-31.9-31.9 0-5.8 1.6-11.2 4.3-15.9 1-2.5 1.6-5.3 1.6-8.1-.2-10.1-7-18.5-16.2-20.9z" fill="#008c95"/><path d="M44.6 168c-1.7 0-2.6.9-2.6 2.8v5.9c0 1.9.9 2.8 2.7 2.8 2.2 0 2.4-1.4 2.5-2.3 0-.4.3-.6.8-.6.6 0 .8.2.8.9 0 2-1.6 3.5-4.3 3.5-2.3 0-4.2-1.2-4.2-4.3v-5.9c0-3.1 1.9-4.3 4.2-4.3 2.6 0 4.3 1.5 4.3 3.4 0 .8-.3.9-.8.9s-.8-.2-.8-.6c-.1-.7-.4-2.2-2.6-2.2zM50.8 176.8v-6c0-3.1 1.9-4.3 4.2-4.3 2.4 0 4.3 1.2 4.3 4.3v5.9c0 3.1-1.9 4.3-4.3 4.3-2.3.1-4.2-1.1-4.2-4.2zm6.9-6c0-1.9-1-2.8-2.6-2.8s-2.6.9-2.6 2.8v5.9c0 1.9 1 2.8 2.6 2.8s2.6-.9 2.6-2.8zM67.8 175.6c-.2.3-.4.5-.7.5-.2 0-.4-.1-.6-.5l-3-5.7v10.4c0 .4-.4.6-.8.6s-.8-.2-.8-.6v-13c0-.6.4-.8.8-.8.6 0 1 .4 1.3 1l3.1 5.9 3.1-5.9c.4-.7.7-1 1.3-1 .4 0 .8.2.8.8v13c0 .4-.4.6-.8.6s-.8-.2-.8-.6v-10.4zM75.3 167.1c0-.4.4-.6.8-.6s.8.2.8.6v13.3c0 .4-.4.6-.8.6s-.8-.2-.8-.6zM85.8 177.1c0-4-6.5-2.2-6.5-7 0-2.9 2.4-3.7 4.3-3.7 1.4 0 3.5.4 3.5 1.3 0 .3-.3.9-.7.9-.5 0-1-.8-2.7-.8-1.5 0-2.7.5-2.7 2.1 0 3.3 6.5 1.6 6.5 7 0 2.8-1.8 4.1-4.3 4.1s-4.2-1.4-4.2-2.2c0-.4.4-.9.7-.9.6 0 1 1.6 3.4 1.6 1.7.1 2.7-.7 2.7-2.4zM89.6 167.1c0-.4.4-.6.8-.6s.8.2.8.6v13.3c0 .4-.4.6-.8.6s-.8-.2-.8-.6zM94 176.8v-6c0-3.1 1.9-4.3 4.2-4.3 2.4 0 4.3 1.2 4.3 4.3v5.9c0 3.1-1.9 4.3-4.3 4.3-2.4.1-4.2-1.1-4.2-4.2zm6.8-6c0-1.9-1-2.8-2.6-2.8s-2.6.9-2.6 2.8v5.9c0 1.9 1 2.8 2.6 2.8s2.6-.9 2.6-2.8zm-3.1-6.4c-.1 0-.1.1-.2.1-.3 0-.6-.4-.6-.7 0-.2.1-.3.3-.4l2.3-1.2h.2c.3 0 .6.4.6.7 0 .2-.1.4-.3.5zM111.9 180.2l-5.1-9.9v10.1c0 .4-.4.6-.8.6s-.8-.2-.8-.6v-13.3c0-.4.4-.6.8-.6.6 0 .9.4 1.3 1l4.9 9.6V167c0-.4.4-.6.8-.6s.8.2.8.6v13.3c0 .4-.4.6-.8.6-.5.1-.9-.3-1.1-.7zM124.8 166.5c2.4 0 4.3 1.2 4.3 4.3v5.8c0 3.1-1.9 4.3-4.3 4.3h-3.5c-.5 0-.8-.3-.8-.6V167c0-.3.3-.6.8-.6h3.5zm-2.6 1.5v11.4h2.6c1.6 0 2.6-.9 2.6-2.8v-5.8c0-1.9-1-2.8-2.6-2.8zM133.3 173h3.1c.4 0 .6.3.6.7 0 .3-.2.7-.6.7h-3.1v5h6.1c.4 0 .6.4.6.8s-.2.7-.6.7h-7c-.4 0-.7-.2-.7-.6v-13.2c0-.4.4-.6.7-.6h7c.4 0 .6.4.6.7 0 .4-.2.8-.6.8h-6.1zM147.4 173h3.1c.4 0 .6.3.6.7 0 .3-.2.7-.6.7h-3.1v5h6.1c.4 0 .6.4.6.8s-.2.7-.6.7h-7c-.4 0-.7-.2-.7-.6v-13.2c0-.4.4-.6.7-.6h7c.4 0 .6.4.6.7 0 .4-.2.8-.6.8h-6.1zM162 177.1c0-4-6.5-2.2-6.5-7 0-2.9 2.4-3.7 4.3-3.7 1.4 0 3.5.4 3.5 1.3 0 .3-.3.9-.7.9-.5 0-1-.8-2.7-.8-1.5 0-2.7.5-2.7 2.1 0 3.3 6.5 1.6 6.5 7 0 2.8-1.8 4.1-4.3 4.1s-4.2-1.4-4.2-2.2c0-.4.4-.9.7-.9.6 0 1 1.6 3.4 1.6 1.6.1 2.7-.7 2.7-2.4zM173.3 166.5c.4 0 .6.4.6.7 0 .4-.2.8-.6.8h-3.2v12.3c0 .4-.4.6-.8.6s-.8-.2-.8-.6V168h-3.2c-.4 0-.6-.4-.6-.8s.2-.7.6-.7zM182.5 167.1c0-.4.4-.6.8-.6s.8.2.8.6v9.7c0 3.1-1.9 4.3-4.3 4.3s-4.3-1.2-4.3-4.3v-9.7c0-.4.4-.6.8-.6s.8.2.8.6v9.7c0 1.9 1 2.8 2.6 2.8 1.7 0 2.7-.9 2.7-2.8v-9.7zM191.1 166.5c2.4 0 4.3 1.2 4.3 4.3v5.8c0 3.1-1.9 4.3-4.3 4.3h-3.5c-.5 0-.8-.3-.8-.6V167c0-.3.3-.6.8-.6h3.5zm-2.6 1.5v11.4h2.6c1.6 0 2.6-.9 2.6-2.8v-5.8c0-1.9-1-2.8-2.6-2.8zM198 167.1c0-.4.4-.6.8-.6s.8.2.8.6v13.3c0 .4-.4.6-.8.6s-.8-.2-.8-.6zM201.4 180.3v-.2l4-13.1c.1-.4.6-.6 1-.6.5 0 .9.2 1 .6l4 13.1v.1c0 .4-.6.7-1 .7-.3 0-.5-.1-.6-.4l-.9-2.9h-5.2l-.9 2.9c-.1.3-.3.4-.6.4-.2.1-.8-.2-.8-.6zm7.3-4l-2.2-7.4-2.2 7.4zM220.1 180.2l-5.1-9.9v10.1c0 .4-.4.6-.8.6s-.8-.2-.8-.6v-13.3c0-.4.4-.6.8-.6.6 0 .9.4 1.3 1l4.9 9.6V167c0-.4.4-.6.8-.6s.8.2.8.6v13.3c0 .4-.4.6-.8.6-.5.1-.9-.3-1.1-.7zM232.3 166.5c.4 0 .6.4.6.7 0 .4-.2.8-.6.8h-3.2v12.3c0 .4-.4.6-.8.6s-.8-.2-.8-.6V168h-3.2c-.4 0-.6-.4-.6-.8s.2-.7.6-.7zM236.2 173h3.1c.4 0 .6.3.6.7 0 .3-.2.7-.6.7h-3.1v5h6.1c.4 0 .6.4.6.8s-.2.7-.6.7h-7c-.4 0-.7-.2-.7-.6v-13.2c0-.4.4-.6.7-.6h7c.4 0 .6.4.6.7 0 .4-.2.8-.6.8h-6.1zM250.8 177.1c0-4-6.5-2.2-6.5-7 0-2.9 2.4-3.7 4.3-3.7 1.4 0 3.5.4 3.5 1.3 0 .3-.3.9-.7.9-.4 0-1-.8-2.7-.8-1.5 0-2.7.5-2.7 2.1 0 3.3 6.5 1.6 6.5 7 0 2.8-1.8 4.1-4.3 4.1s-4.2-1.4-4.2-2.2c0-.4.4-.9.7-.9.6 0 1 1.6 3.4 1.6 1.6.1 2.7-.7 2.7-2.4zM262.7 166.5c2.4 0 4.3 1.2 4.3 4.3v5.8c0 3.1-1.9 4.3-4.3 4.3h-3.5c-.5 0-.8-.3-.8-.6V167c0-.3.3-.6.8-.6h3.5zm-2.5 1.5v11.4h2.6c1.6 0 2.6-.9 2.6-2.8v-5.8c0-1.9-1-2.8-2.6-2.8zM271.3 173h3.1c.4 0 .6.3.6.7 0 .3-.2.7-.6.7h-3.1v5h6.1c.4 0 .6.4.6.8s-.2.7-.6.7h-7c-.4 0-.8-.2-.8-.6v-13.2c0-.4.4-.6.8-.6h7c.4 0 .6.4.6.7 0 .4-.2.8-.6.8h-6.1z"/><g><path d="M50 197.9c-3.6 0-5.5 1.9-5.5 5.9v12.5c0 4 2 5.9 5.7 5.9 4.6 0 5-3 5.3-5 .1-.8.7-1.2 1.7-1.2 1.2 0 1.7.4 1.7 2 0 4.1-3.5 7.4-9 7.4-4.9 0-8.9-2.5-8.9-9.1v-12.5c0-6.6 4.1-9.1 9-9.1 5.6 0 9 3.2 9 7.2 0 1.6-.6 1.9-1.7 1.9s-1.7-.5-1.7-1.2c-.2-1.6-.9-4.7-5.6-4.7zM63.1 216.3v-12.5c0-6.6 3.9-9.1 9-9.1 5 0 9 2.5 9 9.1v12.5c0 6.6-4 9.1-9 9.1-5.1 0-9-2.5-9-9.1zm14.5-12.5c0-4-2.1-5.9-5.5-5.9s-5.5 1.9-5.5 5.9v12.5c0 4 2 5.9 5.5 5.9 3.4 0 5.5-1.9 5.5-5.9zM99.1 213.9c-.4.7-.9 1-1.4 1-.4 0-.9-.2-1.3-1l-6.2-12v22c0 .8-.9 1.2-1.7 1.2-.9 0-1.8-.4-1.8-1.2v-27.5c0-1.3.8-1.7 1.8-1.7 1.2 0 2 .8 2.8 2.2l6.5 12.5 6.6-12.5c.8-1.5 1.5-2.2 2.8-2.2.9 0 1.7.5 1.7 1.7v27.5c0 .8-.9 1.2-1.7 1.2-.9 0-1.8-.4-1.8-1.2V202zM114.8 195.9c0-.6.5-1.2 1.4-1.2h7.9c4.9 0 8.8 2.4 8.8 9v.4c0 6.5-4 9-9 9h-5.6v10.8c0 .8-.9 1.2-1.7 1.2-.8 0-1.7-.4-1.7-1.2v-28zm3.5 2v12.3h5.6c3.4 0 5.5-1.9 5.5-5.9v-.5c0-4-2.1-5.9-5.5-5.9zM151.6 195.9c0-.8.8-1.2 1.7-1.2.8 0 1.7.4 1.7 1.2v20.4c0 6.6-4 9.1-9.1 9.1s-9.1-2.5-9.1-9.1v-20.4c0-.8.9-1.2 1.7-1.2.9 0 1.7.4 1.7 1.2v20.4c0 4 2.1 5.9 5.6 5.9 3.5 0 5.6-1.9 5.6-5.9v-20.4zM176.7 194.7c.8 0 1.2.8 1.2 1.6s-.4 1.7-1.2 1.7H170v25.9c0 .8-.9 1.2-1.7 1.2-.8 0-1.7-.4-1.7-1.2V198h-6.7c-.8 0-1.3-.8-1.3-1.7 0-.8.4-1.6 1.3-1.6zM176.9 223.7c0-.1 0-.2.1-.3l8.5-27.7c.2-.8 1.2-1.2 2.2-1.2 1 0 1.9.4 2.2 1.2l8.5 27.7v.3c0 .8-1.2 1.5-2.2 1.5-.6 0-1.1-.2-1.2-.8l-1.8-6.2h-11l-1.8 6.2c-.2.5-.7.8-1.3.8-1-.1-2.2-.6-2.2-1.5zm15.3-8.4l-4.6-15.7-4.7 15.7zM210.8 197.9c-3.6 0-5.5 1.9-5.5 5.9v12.5c0 4 2 5.9 5.7 5.9 4.6 0 5-3 5.3-5 .1-.8.7-1.2 1.7-1.2 1.2 0 1.7.4 1.7 2 0 4.1-3.5 7.4-9 7.4-4.9 0-8.9-2.5-8.9-9.1v-12.5c0-6.6 4.1-9.1 9-9.1 5.6 0 9 3.2 9 7.2 0 1.6-.6 1.9-1.7 1.9s-1.7-.5-1.7-1.2c-.3-1.6-1-4.7-5.6-4.7zM224.1 195.9c0-.8.9-1.2 1.7-1.2.9 0 1.7.4 1.7 1.2v28c0 .8-.9 1.2-1.7 1.2-.9 0-1.7-.4-1.7-1.2zM233.2 216.3v-12.5c0-6.6 3.9-9.1 9-9.1 5 0 9 2.5 9 9.1v12.5c0 6.6-4 9.1-9 9.1s-9-2.5-9-9.1zm14.5-12.5c0-4-2.1-5.9-5.5-5.9s-5.5 1.9-5.5 5.9v12.5c0 4 2 5.9 5.5 5.9 3.4 0 5.5-1.9 5.5-5.9zm-6.5-13.6c-.2.1-.3.2-.5.2-.7 0-1.3-.7-1.3-1.4 0-.4.2-.7.5-.9l4.9-2.6c.1 0 .3-.1.4-.1.7 0 1.2.8 1.2 1.4 0 .4-.2.8-.6 1zM271.1 223.6l-10.8-20.9V224c0 .8-.9 1.2-1.7 1.2-.8 0-1.7-.4-1.7-1.2v-28c0-.9.8-1.2 1.7-1.2 1.2 0 1.9.8 2.7 2.2l10.4 20.3V196c0-.8.9-1.2 1.7-1.2.9 0 1.7.4 1.7 1.2v28c0 .8-.9 1.2-1.7 1.2-1-.1-1.8-.7-2.3-1.6z"/></g><g><path d="M40.4 186.7h191.9v1.1H40.4z"/></g><g><path d="M254.5 186.7h22.2v1.1h-22.2z"/></g></svg>