<svg xmlns="http://www.w3.org/2000/svg" viewBox="0 0 96.000001 96.000001"><path d="M81.886 44.668l-32.663-32.66a4.817 4.817 0 0 0-6.812 0l-6.78 6.783 8.602 8.604a5.72 5.72 0 0 1 7.245 7.294l8.292 8.292a5.722 5.722 0 0 1 5.922 1.36 5.73 5.73 0 0 1 0 8.106 5.732 5.732 0 0 1-9.356-6.234l-7.733-7.733v20.348c.545.27 1.06.63 1.516 1.084a5.733 5.733 0 1 1-6.23-1.25V38.12a5.73 5.73 0 0 1-3.112-7.517l-8.48-8.482L9.9 44.517a4.82 4.82 0 0 0 0 6.815l32.662 32.66a4.818 4.818 0 0 0 6.813 0l32.51-32.51a4.82 4.82 0 0 0 0-6.814" fill="#f03c2e"/></svg>